<svg width="48" height="48" viewBox="0 0 48 48" fill="none" xmlns="http://www.w3.org/2000/svg">
<path fill-rule="evenodd" clip-rule="evenodd" d="M7.25 16.125C7.25 15.5727 7.69772 15.125 8.25 15.125H30.75C31.3023 15.125 31.75 15.5727 31.75 16.125V40.875C31.75 41.4273 31.3023 41.875 30.75 41.875H8.25C7.69772 41.875 7.25 41.4273 7.25 40.875V16.125ZM9.25 17.125V39.875H29.75V17.125H9.25Z" fill="#A4A29B"/>
<path fill-rule="evenodd" clip-rule="evenodd" d="M16.25 7.125C16.25 6.57272 16.6977 6.125 17.25 6.125H39.75C40.3023 6.125 40.75 6.57272 40.75 7.125V31.875C40.75 32.4273 40.3023 32.875 39.75 32.875C39.1977 32.875 38.75 32.4273 38.75 31.875V8.125H17.25C16.6977 8.125 16.25 7.67728 16.25 7.125Z" fill="#FAD84B"/>
<path fill-rule="evenodd" clip-rule="evenodd" d="M11.75 11.625C11.75 11.0727 12.1977 10.625 12.75 10.625H35.25C35.8023 10.625 36.25 11.0727 36.25 11.625V36.375C36.25 36.9273 35.8023 37.375 35.25 37.375C34.6977 37.375 34.25 36.9273 34.25 36.375V12.625H12.75C12.1977 12.625 11.75 12.1773 11.75 11.625Z" fill="#FAD84B"/>
<path fill-rule="evenodd" clip-rule="evenodd" d="M12 23C12 22.4477 12.4477 22 13 22H26.5312C27.0835 22 27.5312 22.4477 27.5312 23C27.5312 23.5523 27.0835 24 26.5312 24H19.7656H13C12.4477 24 12 23.5523 12 23Z" fill="#A4A29B"/>
<path fill-rule="evenodd" clip-rule="evenodd" d="M12 29C12 28.4477 12.4477 28 13 28H26.5312C27.0835 28 27.5312 28.4477 27.5312 29C27.5312 29.5523 27.0835 30 26.5312 30H13C12.4477 30 12 29.5523 12 29Z" fill="#A4A29B"/>
<path fill-rule="evenodd" clip-rule="evenodd" d="M12 35C12 34.4477 12.4477 34 13 34L18 34C18.5523 34 19 34.4477 19 35C19 35.5523 18.5523 36 18 36H13C12.4477 36 12 35.5523 12 35Z" fill="#A4A29B"/>
</svg>
