<svg width="24" height="24" viewBox="0 0 24 24" fill="none" xmlns="http://www.w3.org/2000/svg">
<path d="M4 16.9091C4 19.2426 7.43698 21 12 21C16.563 21 20 19.2426 20 16.9091C20 16.5946 19.9376 16.2906 19.8184 16C19.0532 17.8661 15.9481 19.1818 12 19.1818C8.05188 19.1818 4.94677 17.8661 4.18159 16C4.06241 16.2906 4 16.5946 4 16.9091Z" fill="#737169"/>
<path d="M4 13.9091C4 16.2426 7.43698 18 12 18C16.563 18 20 16.2426 20 13.9091C20 13.5946 19.9376 13.2906 19.8184 13C19.0532 14.8661 15.9481 16.1818 12 16.1818C8.05188 16.1818 4.94677 14.8661 4.18159 13C4.06241 13.2906 4 13.5946 4 13.9091Z" fill="#737169"/>
<path d="M4 10.9091C4 13.2426 7.43698 15 12 15C16.563 15 20 13.2426 20 10.9091C20 10.5946 19.9376 10.2906 19.8184 10C19.0532 11.8661 15.9481 13.1818 12 13.1818C8.05188 13.1818 4.94677 11.8661 4.18159 10C4.06241 10.2906 4 10.5946 4 10.9091Z" fill="#737169"/>
<path d="M12 12C7.43698 12 4 10.0668 4 7.5C4 4.93316 7.43698 3 12 3C16.563 3 20 4.93315 20 7.5C20 10.0668 16.563 12 12 12Z" fill="#737169"/>
</svg>
