<svg xmlns="http://www.w3.org/2000/svg" fill="none" width="24" height="24" viewBox="0 0 24 24">
<path d="M8,2 L8,5 L16,5 L16,2 L18,2 L18,5 L19.4361148,5 C20.3276335,5 20.6509198,5.09282561 20.9768457,5.2671327 C21.3027716,5.4414398 21.5585602,5.69722837 21.7328673,6.0231543 C21.9071744,6.34908022 22,6.67236646 22,7.5638852 L22,19.4361148 C22,20.3276335 21.9071744,20.6509198 21.7328673,20.9768457 C21.5585602,21.3027716 21.3027716,21.5585602 20.9768457,21.7328673 C20.6509198,21.9071744 20.3276335,22 19.4361148,22 L4.5638852,22 C3.67236646,22 3.34908022,21.9071744 3.0231543,21.7328673 C2.69722837,21.5585602 2.4414398,21.3027716 2.2671327,20.9768457 C2.10623385,20.675991 2.014763,20.3773855 2.00164263,19.6320228 L2,7.5638852 C2,6.67236646 2.09282561,6.34908022 2.2671327,6.0231543 C2.4414398,5.69722837 2.69722837,5.4414398 3.0231543,5.2671327 C3.324009,5.10623385 3.6226145,5.014763 4.36797723,5.00164263 L6,5 L6,2 L8,2 Z M13,18 L11,18 L11,20 L13,20 L13,18 Z M13.2,12 L10.8,12 L11,16.5 L13,16.5 L13.2,12 Z M19,7 L5,7 C4.44771525,7 4,7.44771525 4,8 L4,8 L4,10 L20,10 L20,8 C20,7.44771525 19.5522847,7 19,7 L19,7 Z" fill="currentColor" ></path>
</svg>