<svg width="85" height="108" viewBox="0 0 85 108" fill="none" xmlns="http://www.w3.org/2000/svg">
<path d="M80.0016 108.101H4.82456C2.38831 108.101 0.413086 106.256 0.413086 103.98V4.22155C0.413086 1.94587 2.38806 0.10083 4.82456 0.10083H80.0016C82.4379 0.10083 84.4131 1.94564 84.4131 4.22155V103.98C84.4131 106.256 82.4379 108.101 80.0016 108.101Z" fill="#ECF0F9"/>
<path d="M71.4757 98.6073H61.8608C60.833 98.6073 60 97.7713 60 96.7402V87.0929C60 86.0616 60.8332 85.2258 61.8608 85.2258H71.4757C72.5036 85.2258 73.3366 86.0618 73.3366 87.0929V96.7402C73.3366 97.7713 72.5033 98.6073 71.4757 98.6073Z" fill="#CEDEEC"/>
<path d="M49.595 93.6669H9.86982C8.83689 93.6669 8 92.8832 8 91.9164C8 90.9497 8.83714 90.166 9.86982 90.166H49.5952C50.6281 90.166 51.465 90.9497 51.465 91.9164C51.465 92.8832 50.6279 93.6669 49.595 93.6669Z" fill="#065270"/>
<path d="M27.443 24.8079C30.3453 24.8079 32.6981 22.4472 32.6981 19.5352C32.6981 16.6231 30.3453 14.2625 27.443 14.2625C24.5407 14.2625 22.188 16.6231 22.188 19.5352C22.188 22.4472 24.5407 24.8079 27.443 24.8079Z" fill="#F0C087"/>
<path d="M17.5171 38.2828H36.7855V33.8922C36.7855 29.5223 32.4723 25.9797 27.1515 25.9797C21.8307 25.9797 17.5174 29.5223 17.5174 33.8922V38.2828H17.5171Z" fill="#694B4B"/>
<path d="M71.8472 19.7902H52.8184C51.6291 19.7902 50.6655 19.0065 50.6655 18.0397C50.6655 17.0728 51.6294 16.2893 52.8184 16.2893H71.8472C73.0364 16.2893 74 17.073 74 18.0397C74.0003 19.0065 73.0364 19.7902 71.8472 19.7902Z" fill="#065270"/>
<path d="M71.8472 29.7145H52.8184C51.6291 29.7145 50.6655 28.9308 50.6655 27.964C50.6655 26.9973 51.6294 26.2136 52.8184 26.2136H71.8472C73.0364 26.2136 74 26.9973 74 27.964C74 28.9308 73.0364 29.7145 71.8472 29.7145Z" fill="#065270"/>
<path d="M71.8796 40H53.1357C51.9643 40 51.0151 39.3284 51.0151 38.5C51.0151 37.6714 51.9646 37 53.1357 37H71.8796C73.051 37 74.0002 37.6716 74.0002 38.5C74.0004 39.3284 73.051 40 71.8796 40Z" fill="#065270"/>
<path d="M72.1313 57H9.8685C8.8363 57 8 56.3284 8 55.5C8 54.6716 8.83654 54 9.8685 54H72.1315C73.1637 54 74 54.6716 74 55.5C74 56.3284 73.1635 57 72.1313 57Z" fill="#065270"/>
<path d="M72.1299 67.128H9.82295C8.79002 67.128 7.95312 66.3444 7.95312 65.3776C7.95312 64.4109 8.79026 63.6272 9.82295 63.6272H72.1302C73.1631 63.6272 74 64.4109 74 65.3776C74 66.3444 73.1629 67.128 72.1299 67.128Z" fill="#065270"/>
<path d="M72.1299 77.0521H9.82295C8.79002 77.0521 7.95312 76.2684 7.95312 75.3017C7.95312 74.3349 8.79026 73.5513 9.82295 73.5513H72.1302C73.1631 73.5513 74 74.3349 74 75.3017C74 76.2684 73.1629 77.0521 72.1299 77.0521Z" fill="#065270"/>
<path d="M65.0037 95.6968C64.9835 95.6968 64.9633 95.6959 64.943 95.6941C64.7295 95.6748 64.5365 95.5547 64.4189 95.3683L62.6787 92.6088C62.4668 92.2728 62.5568 91.8215 62.8797 91.6009C63.2025 91.3805 63.6362 91.474 63.8481 91.8101L65.1016 93.7978L69.5294 88.8959C69.794 88.6029 70.2365 88.5887 70.518 88.8641C70.7996 89.1394 70.8132 89.6001 70.5486 89.893L65.5132 95.4675C65.3805 95.6145 65.1957 95.6968 65.0037 95.6968Z" fill="#065270"/>
</svg>
