<svg width="120" height="120" viewBox="0 0 120 120" fill="none" xmlns="http://www.w3.org/2000/svg">
<path d="M85.0968 49.2256V50.5838C85.0968 52.2481 85.3652 53.9014 85.8913 55.4802L88.9677 64.7094H94.7741V43.419H90.9032C87.6965 43.4192 85.0968 46.0187 85.0968 49.2256Z" fill="#5A4146"/>
<path d="M111.598 53.2463L108.323 64.7096L92.8387 51.1613C90.7007 51.1613 88.9678 49.4281 88.9678 47.2904C88.9678 44.0837 91.5675 41.484 94.7742 41.484H108.322C110.46 41.484 112.193 43.2172 112.193 45.3549V48.9929C112.194 50.4312 111.993 51.8628 111.598 53.2463Z" fill="#694B4B"/>
<path d="M104.45 70.5172H92.8375V79.0834H104.45V70.5172Z" fill="#E6AF78"/>
<path d="M92.8386 74.0713C94.6337 74.8006 96.5912 75.2113 98.645 75.2113C100.699 75.2113 102.656 74.8006 104.451 74.0713V70.516H92.8386V74.0713Z" fill="#D29B6E"/>
<path d="M113.789 77.8791L104.451 75.2115L98.6451 79.0644L92.8387 75.2113L83.5017 77.8791C81.0088 78.5914 79.2904 80.8698 79.2904 83.4622V97.6128C79.2904 98.6818 80.1569 99.5483 81.2259 99.5483H116.065C117.134 99.5483 118 98.6818 118 97.6128V83.4622C118 80.8695 116.281 78.5914 113.789 77.8791Z" fill="#D5DCED"/>
<path d="M100.581 99.548H96.7096L97.6773 79.0822H99.6128L100.581 99.548Z" fill="#AFB9D2"/>
<path d="M98.645 72.4515C92.2314 72.4515 87.0322 67.2521 87.0322 60.8387V58.5711C87.0322 57.5445 87.44 56.5599 88.1659 55.8338L91.6757 52.3241C92.4189 51.5809 93.4351 51.1536 94.4856 51.1866C100.673 51.3819 106.149 52.7073 109.143 55.6311C109.876 56.3469 110.258 57.3481 110.258 58.3724V60.8387C110.258 67.2523 105.059 72.4515 98.645 72.4515Z" fill="#F0C087"/>
<path d="M92.8386 59.0511C92.8386 56.8184 94.7136 55.0438 96.9418 55.1858C100.849 55.4352 106.647 56.0881 110.204 57.7991C110.088 56.9825 109.737 56.2116 109.143 55.6309C106.149 52.707 100.673 51.3816 94.4856 51.1864L94.4854 51.1866V51.1864C93.4351 51.1534 92.4186 51.5809 91.6757 52.3238L88.1661 55.8334C87.44 56.5592 87.0322 57.5438 87.0322 58.5706V60.8382C87.0322 66.1341 90.5809 70.5931 95.4275 71.9895C93.8143 69.9992 92.8389 67.4727 92.8389 64.7091L92.8386 59.0511Z" fill="#E6AF78"/>
<path d="M110.258 89.2295C110.258 87.6894 110.87 86.2126 111.959 85.1237L116.941 80.1416C117.607 81.0934 118 82.2392 118 83.4624V97.613C118 98.682 117.133 99.5485 116.064 99.5485H110.258V89.2295Z" fill="#C7CFE2"/>
<path d="M99.6128 82.9531H97.6773C97.143 82.9531 96.7096 82.5198 96.7096 81.9854V79.0822H100.581V81.9854C100.581 82.5198 100.147 82.9531 99.6128 82.9531Z" fill="#959CB5"/>
<path d="M98.6451 79.0646L95.3645 81.5703C94.7995 82.002 93.9824 81.8291 93.6409 81.2052L90.6981 75.8309L91.8827 74.0241C92.1454 73.6234 92.7053 73.5552 93.0566 73.8809L98.6451 79.0646Z" fill="#C7CFE2"/>
<path d="M98.645 79.0646L101.926 81.5706C102.491 82.0023 103.308 81.8293 103.649 81.2054L106.592 75.8312L105.407 74.0244C105.145 73.6236 104.585 73.5554 104.233 73.8812L98.645 79.0646Z" fill="#C7CFE2"/>
<path d="M36.6458 71.6434C34.9918 67.261 33.68 59.7275 33.3967 55.8052C32.8576 48.3413 27.2328 42.257 19.6292 42.257C12.0256 42.257 6.40088 48.3416 5.86182 55.8052C5.57846 59.7273 4.26666 67.261 2.61268 71.6434C2.24822 72.6095 2.66893 73.6747 3.62026 74.1059C5.3926 74.9091 9.17143 76.4827 13.7288 77.0956H25.5294C30.0655 76.4813 33.8708 74.9068 35.638 74.1059C36.5896 73.6747 37.0103 72.6095 36.6458 71.6434Z" fill="#5A4146"/>
<path d="M35.6381 74.1062C36.5892 73.6749 37.0102 72.6097 36.6455 71.6436C34.9917 67.2613 33.6797 59.7277 33.3966 55.8055C32.8578 48.3416 27.2328 42.2572 19.6294 42.2572C19.6102 42.2572 19.5912 42.2572 19.572 42.2574C13.7377 42.2811 11.6759 50.2379 16.6983 53.2067C16.9999 53.3851 17.1933 53.4709 17.1933 53.4709L21.5923 77.0959H25.5296C30.0656 76.4811 33.871 74.9068 35.6381 74.1062Z" fill="#694B4B"/>
<path d="M33.6289 80.9816L27.3655 77.8501C26.0539 77.1943 25.2254 75.8537 25.2256 74.3874L25.2261 68.5808H13.6128V74.3877C13.6128 75.8539 12.7845 77.1941 11.473 77.8498L5.20953 80.9816C3.24242 81.965 2 83.9755 2 86.1746V97.6126C2 98.6813 2.86648 99.548 3.93547 99.548H34.9032C35.9722 99.548 36.8387 98.6813 36.8387 97.6126V86.1748C36.8387 83.9755 35.596 81.965 33.6289 80.9816Z" fill="#E6AF78"/>
<path d="M19.4195 76.3224C21.5035 76.3224 23.4997 75.8928 25.3297 75.128C25.2817 74.8841 25.2256 74.6415 25.2256 74.3872L25.2261 68.5806H13.6128V74.3874C13.6128 74.6431 13.5568 74.8869 13.5083 75.1318C15.3395 75.8926 17.3347 76.3224 19.4195 76.3224Z" fill="#D29B6E"/>
<path d="M33.6289 80.9816L29.1669 78.7505C27.0978 81.9455 23.5093 84.0645 19.4195 84.0645C15.3296 84.0645 11.7409 81.9455 9.6718 78.7503L5.20977 80.9816C3.24266 81.965 2 83.9755 2 86.1746V97.6126C2 98.6816 2.86648 99.548 3.93547 99.548H34.9032C35.9722 99.548 36.8387 98.6816 36.8387 97.6126V86.1748C36.8387 83.9755 35.596 81.965 33.6289 80.9816Z" fill="#D5DCED"/>
<path d="M19.4194 72.4515C13.515 72.4515 8.64004 68.0452 7.90293 62.3417C7.79605 61.5153 8.19332 60.7051 8.93722 60.3298C9.82832 59.8803 11.1232 59.1223 12.3631 58.0161C13.7438 56.7842 14.5538 55.4851 15.0113 54.5314C15.4053 53.7102 16.3109 53.2456 17.1936 53.4709C24.0082 55.209 28.6477 58.7544 30.331 60.2019C30.7828 60.5905 31.0432 61.1635 30.9968 61.7579C30.5278 67.7415 25.5237 72.4515 19.4194 72.4515Z" fill="#F0C087"/>
<path d="M30.3308 60.2016C28.6478 58.7541 24.0081 55.2088 17.1934 53.4706C16.3107 53.2454 15.4051 53.7099 15.0111 54.5312C14.6647 55.2535 14.0921 56.1737 13.2425 57.113C13.2423 57.1154 13.2416 57.1173 13.2413 57.1196C12.9777 57.4184 12.6969 57.718 12.3631 58.0161C11.1233 59.1226 9.82838 59.8803 8.93729 60.3298C8.19338 60.7051 7.79635 61.5155 7.90299 62.342C8.5651 67.4642 12.5734 71.5414 17.6588 72.3191C15.3416 70.7427 13.6131 68.5747 13.6131 64.7098V61.9498C14.0528 61.6252 14.4955 61.3016 14.9403 60.9045C16.0161 59.9445 16.9553 58.8343 17.7083 57.639C22.9215 59.2658 26.4559 61.9754 27.7958 63.1276C28.1626 63.4491 29.0729 64.2882 30.1379 65.2874C30.5961 64.1846 30.8992 63.0015 30.9964 61.7581C31.0431 61.1635 30.7827 60.5905 30.3308 60.2016Z" fill="#E6AF78"/>
<path d="M3.17984 82.6857C2.4343 83.6752 2 84.8891 2 86.1746V97.6126C2 98.6816 2.86648 99.548 3.93547 99.548H9.74188V89.7957C9.74188 88.6198 9.20727 87.5075 8.28898 86.773L3.17984 82.6857Z" fill="#C7CFE2"/>
<path d="M87.8888 86.0851L71.647 80L60 84.0002L48.353 80.0002L32.1112 86.0854C29.0427 87.235 27 90.2396 27 93.6035V106C27 107.104 27.869 108 28.9412 108H91.0588C92.131 108 93 107.104 93 106V93.6035C93 90.2394 90.9575 87.2348 87.8888 86.0851Z" fill="#8FDFFF"/>
<path d="M57.9048 88L56 108H64L62.0952 88H57.9048Z" fill="#FFDD00"/>
<path d="M62.032 90.8526H57.968C57.2196 90.8526 56.613 90.246 56.613 89.4977V84.3224H63.3867V89.4977C63.387 90.2458 62.7804 90.8526 62.032 90.8526Z" fill="#CFB300"/>
<path d="M90.8472 88C92.1976 89.4606 93 91.406 93 93.4926V105.985C93 107.098 92.1046 108 91 108H81V101.262C81 99.1241 81.8428 97.0736 83.3432 95.5619L90.8472 88Z" fill="#60D0FC"/>
<path d="M81.2904 40.5365V24.3224C81.2904 22.1845 79.5572 20.4515 77.4195 20.4515H54.1936C45.6422 20.4515 38.7096 27.3838 38.7096 35.9355V40.5365C38.7096 42.6168 39.045 44.6835 39.7029 46.657L40.3472 48.5899C40.5445 49.1819 40.6451 49.8018 40.6451 50.4259V51.4192H79.3547V50.4259C79.3547 49.8018 79.4552 49.1819 79.6526 48.5899L80.2969 46.657C80.955 44.6833 81.2904 42.6166 81.2904 40.5365Z" fill="#5A4146"/>
<path d="M48.3872 28.3143C48.3872 32.6568 51.9075 36.1771 56.25 36.1771H57.3387L57.8642 51.419H79.3547V50.4257C79.3547 49.8016 79.4553 49.1816 79.6526 48.5896L80.2969 46.6567C80.9548 44.6833 81.2902 42.6166 81.2902 40.5363V24.3224C81.2902 22.1845 79.557 20.4515 77.4192 20.4515H56.25C51.9075 20.4515 48.3872 23.9718 48.3872 28.3143Z" fill="#694B4B"/>
<path d="M71.6133 66.9039H48.3867V84.3227H71.6133V66.9039Z" fill="#E6AF78"/>
<path d="M48.3872 73.4477C51.8063 75.4284 55.7646 76.5803 60 76.5803C64.2354 76.5803 68.194 75.4284 71.6128 73.4477V66.903H48.387L48.3872 73.4477Z" fill="#D29B6E"/>
<path d="M60 84.3224L53.827 90.4954C52.9973 91.3251 51.626 91.2316 50.9168 90.2969L44.5162 81.8631L46.1904 78.3351C46.6844 77.294 47.973 76.9124 48.9541 77.5171L60 84.3224Z" fill="#32C1FA"/>
<path d="M60 84.3224L66.173 90.4954C67.0027 91.3251 68.374 91.2316 69.0832 90.2969L75.4837 81.8631L73.8096 78.3351C73.3155 77.294 72.027 76.9124 71.0459 77.5171L60 84.3224Z" fill="#32C1FA"/>
<path d="M59.9999 72.7096C49.3106 72.7096 40.645 64.0441 40.645 53.3547V51.0871C40.645 50.0605 41.0528 49.0759 41.7787 48.3498L43.382 46.7465C44.1079 46.0206 44.5157 45.036 44.5157 44.0092V39.3695C44.5157 38.4733 45.1176 37.6947 45.9897 37.4887C50.5673 36.4075 64.8119 33.8465 74.5059 40.9762C75.1354 41.4391 75.4835 42.1996 75.4835 42.981V44.0092C75.4835 45.0358 75.8913 46.0204 76.6171 46.7465L78.2205 48.3498C78.9463 49.0757 79.3542 50.0603 79.3542 51.0871V53.3547C79.3549 64.0441 70.6893 72.7096 59.9999 72.7096Z" fill="#F0C087"/>
<path d="M74.5061 40.9764C67.6881 35.962 58.6317 35.7449 52.2581 36.4314C49.5695 36.7209 47.3481 37.1683 45.9902 37.4889C45.1181 37.6949 44.5162 38.4735 44.5162 39.3698V44.0092C44.5162 45.036 44.1084 46.0206 43.3823 46.7467L41.7789 48.3501C41.0528 49.0762 40.645 50.0608 40.645 51.0876V53.3549C40.645 63.2512 48.077 71.3983 57.6611 72.5549C54.3215 69.077 52.2578 64.364 52.2578 59.1613V45.0142C52.2578 43.0527 53.7163 41.4135 55.6624 41.1695C60.3072 40.5871 68.8145 40.237 75.4835 44.0097V42.9813C75.4839 42.1998 75.1352 41.4391 74.5061 40.9764Z" fill="#E6AF78"/>
<path d="M29.1528 88C27.8024 89.4606 27 91.406 27 93.4926V105.985C27 107.098 27.8954 108 29 108H39V101.262C39 99.1241 38.1572 97.0736 36.6568 95.5619L29.1528 88Z" fill="#60D0FC"/>
</svg>
