<svg width="92" height="117" viewBox="0 0 92 117" fill="none" xmlns="http://www.w3.org/2000/svg">
<path d="M8 105V113C8 115.209 9.79106 117 12.0003 117H88.0002C90.2094 117 92.0005 115.209 92.0005 113V13.0001C92.0005 10.7908 90.2096 8.99976 88.0002 8.99976H80.0002L8 105Z" fill="#DEE1E8"/>
<path d="M0.000241316 104C0.000241316 106.209 1.79131 108 4.00056 108H80.0004C82.2097 108 84.0005 106.209 84.0005 104V4.00008C84.0005 1.79082 82.2094 0 80.0004 0H4.00032C1.79107 0 0 1.79107 0 4.00008V104H0.000241316Z" fill="#ECF0F9"/>
<path d="M50.0684 15.9998H29.9316C28.8649 15.9998 28 15.1349 28 14.0682V9.93147C28 8.86475 28.8649 7.99988 29.9316 7.99988H50.0684C51.1351 7.99988 52 8.86475 52 9.93147V14.0682C52 15.1352 51.1351 15.9998 50.0684 15.9998Z" fill="#4C9CD6"/>
<path d="M66.3581 96H52.6419C51.7351 96 51 95.1351 51 94.0684V89.9316C51 88.8649 51.7351 88 52.6419 88H66.3581C67.2649 88 68 88.8649 68 89.9316V94.0684C68 95.1351 67.2651 96 66.3581 96Z" fill="#4C9CD6"/>
<path d="M68.0003 29.8107H32.0003C31.0002 29.8107 30.1895 28.9999 30.1895 27.9998C30.1895 26.9997 31.0002 26.189 32.0003 26.189H68.0003C69.0007 26.189 69.8112 26.9997 69.8112 27.9998C69.8112 28.9999 69.0004 29.8107 68.0003 29.8107Z" fill="#065270"/>
<path d="M22.0686 37.8116H17.9319C15.8682 37.8116 14.1895 36.1328 14.1895 34.0691V29.9324C14.1895 27.8687 15.8682 26.1899 17.9319 26.1899H22.0686C24.1323 26.1899 25.8111 27.8687 25.8111 29.9324V34.0691C25.8111 36.1328 24.1323 37.8116 22.0686 37.8116ZM17.9319 29.8114C17.8653 29.8114 17.8112 29.8655 17.8112 29.9322V34.0691C17.8112 34.1358 17.8653 34.1899 17.9319 34.1899H22.0686C22.1353 34.1899 22.1894 34.1358 22.1894 34.0691V29.9324C22.1894 29.8658 22.1353 29.8117 22.0686 29.8117H17.9319V29.8114Z" fill="#99B4CD"/>
<path d="M48.0001 37.8108H32.0003C31.0002 37.8108 30.1895 37 30.1895 36C30.1895 34.9999 31.0002 34.1891 32.0003 34.1891H48.0001C49.0005 34.1891 49.811 34.9999 49.811 36C49.811 37 49.0002 37.8108 48.0001 37.8108Z" fill="#065270"/>
<path d="M68.0003 49.8106H32.0003C31.0002 49.8106 30.1895 48.9998 30.1895 47.9997C30.1895 46.9996 31.0002 46.1888 32.0003 46.1888H68.0003C69.0007 46.1888 69.8112 46.9996 69.8112 47.9997C69.8112 48.9998 69.0004 49.8106 68.0003 49.8106Z" fill="#065270"/>
<path d="M22.0686 57.8115H17.9319C15.8682 57.8115 14.1895 56.1327 14.1895 54.069V49.9323C14.1895 47.8686 15.8682 46.1898 17.9319 46.1898H22.0686C24.1323 46.1898 25.8111 47.8686 25.8111 49.9323V54.069C25.8111 56.1327 24.1323 57.8115 22.0686 57.8115ZM17.9319 49.8113C17.8653 49.8113 17.8112 49.8654 17.8112 49.932V54.0688C17.8112 54.1354 17.8653 54.1895 17.9319 54.1895H22.0686C22.1353 54.1895 22.1894 54.1354 22.1894 54.0688V49.932C22.1894 49.8654 22.1353 49.8113 22.0686 49.8113H17.9319Z" fill="#99B4CD"/>
<path d="M22.0686 77.6216H17.9319C15.8682 77.6216 14.1895 75.9429 14.1895 73.8792V69.7425C14.1895 67.6788 15.8682 66 17.9319 66H22.0686C24.1323 66 25.8111 67.6788 25.8111 69.7425V73.8792C25.8111 75.9429 24.1323 77.6216 22.0686 77.6216ZM17.9319 69.6215C17.8653 69.6215 17.8112 69.6756 17.8112 69.7422V73.879C17.8112 73.9456 17.8653 73.9997 17.9319 73.9997H22.0686C22.1353 73.9997 22.1894 73.9456 22.1894 73.879V69.7422C22.1894 69.6756 22.1353 69.6215 22.0686 69.6215H17.9319Z" fill="#99B4CD"/>
<path d="M48.0001 57.8107H32.0003C31.0002 57.8107 30.1895 56.9999 30.1895 55.9998C30.1895 54.9997 31.0002 54.189 32.0003 54.189H48.0001C49.0005 54.189 49.811 54.9997 49.811 55.9998C49.811 56.9999 49.0002 57.8107 48.0001 57.8107Z" fill="#065270"/>
<path d="M68.0003 69.8107H32.0003C31.0002 69.8107 30.1895 68.9999 30.1895 67.9998C30.1895 66.9997 31.0002 66.189 32.0003 66.189H68.0003C69.0007 66.189 69.8112 66.9997 69.8112 67.9998C69.8112 68.9999 69.0004 69.8107 68.0003 69.8107Z" fill="#065270"/>
<path d="M48.0001 77.8106H32.0003C31.0002 77.8106 30.1895 76.9998 30.1895 75.9997C30.1895 74.9996 31.0002 74.1888 32.0003 74.1888H48.0001C49.0005 74.1888 49.811 74.9996 49.811 75.9997C49.811 76.9998 49.0002 77.8106 48.0001 77.8106Z" fill="#065270"/>
</svg>
