<svg width="120" height="120" viewBox="0 0 120 120" fill="none" xmlns="http://www.w3.org/2000/svg">
<g clip-path="url(#clip0)">
<path d="M11.9999 104C11.9999 106.209 13.791 108 16.0003 108H92.0001C94.2094 108 96.0002 106.209 96.0002 104V4.00008C96.0002 1.79082 94.2091 0 92.0001 0H16C13.7908 0 11.9997 1.79107 11.9997 4.00008V104H11.9999Z" fill="#ECF0F9"/>
<path d="M62.0684 15.9998H41.9316C40.8649 15.9998 40 15.1349 40 14.0682V9.93147C40 8.86475 40.8649 7.99988 41.9316 7.99988H62.0684C63.1351 7.99988 64 8.86475 64 9.93147V14.0682C64 15.1352 63.1351 15.9998 62.0684 15.9998Z" fill="#4C9CD6"/>
<path d="M78.3581 96H64.6419C63.7351 96 63 95.1351 63 94.0684V89.9316C63 88.8649 63.7351 88 64.6419 88H78.3581C79.2649 88 80 88.8649 80 89.9316V94.0684C80 95.1351 79.2651 96 78.3581 96Z" fill="#4C9CD6"/>
<path d="M80.0001 29.8107H44.0001C43 29.8107 42.1892 28.9999 42.1892 27.9998C42.1892 26.9997 43 26.189 44.0001 26.189H80.0001C81.0004 26.189 81.811 26.9997 81.811 27.9998C81.811 28.9999 81.0002 29.8107 80.0001 29.8107Z" fill="#065270"/>
<path d="M34.0683 37.8116H29.9316C27.8679 37.8116 26.1891 36.1328 26.1891 34.0691V29.9324C26.1891 27.8687 27.8679 26.1899 29.9316 26.1899H34.0683C36.132 26.1899 37.8108 27.8687 37.8108 29.9324V34.0691C37.8108 36.1328 36.132 37.8116 34.0683 37.8116ZM29.9316 29.8114C29.865 29.8114 29.8109 29.8655 29.8109 29.9322V34.0691C29.8109 34.1358 29.865 34.1899 29.9316 34.1899H34.0683C34.135 34.1899 34.1891 34.1358 34.1891 34.0691V29.9324C34.1891 29.8658 34.135 29.8117 34.0683 29.8117H29.9316V29.8114Z" fill="#99B4CD"/>
<path d="M59.9999 37.8108H44.0001C43 37.8108 42.1892 37 42.1892 36C42.1892 34.9999 43 34.1891 44.0001 34.1891H59.9999C61.0002 34.1891 61.8108 34.9999 61.8108 36C61.8108 37 61 37.8108 59.9999 37.8108Z" fill="#065270"/>
<path d="M80.0001 49.8106H44.0001C43 49.8106 42.1892 48.9998 42.1892 47.9997C42.1892 46.9996 43 46.1888 44.0001 46.1888H80.0001C81.0004 46.1888 81.811 46.9996 81.811 47.9997C81.811 48.9998 81.0002 49.8106 80.0001 49.8106Z" fill="#065270"/>
<path d="M34.0683 57.8115H29.9316C27.8679 57.8115 26.1891 56.1327 26.1891 54.069V49.9323C26.1891 47.8686 27.8679 46.1898 29.9316 46.1898H34.0683C36.132 46.1898 37.8108 47.8686 37.8108 49.9323V54.069C37.8108 56.1327 36.132 57.8115 34.0683 57.8115ZM29.9316 49.8113C29.865 49.8113 29.8109 49.8654 29.8109 49.932V54.0688C29.8109 54.1354 29.865 54.1895 29.9316 54.1895H34.0683C34.135 54.1895 34.1891 54.1354 34.1891 54.0688V49.932C34.1891 49.8654 34.135 49.8113 34.0683 49.8113H29.9316Z" fill="#99B4CD"/>
<path d="M34.0683 77.6216H29.9316C27.8679 77.6216 26.1891 75.9429 26.1891 73.8792V69.7425C26.1891 67.6788 27.8679 66 29.9316 66H34.0683C36.132 66 37.8108 67.6788 37.8108 69.7425V73.8792C37.8108 75.9429 36.132 77.6216 34.0683 77.6216ZM29.9316 69.6215C29.865 69.6215 29.8109 69.6756 29.8109 69.7422V73.879C29.8109 73.9456 29.865 73.9997 29.9316 73.9997H34.0683C34.135 73.9997 34.1891 73.9456 34.1891 73.879V69.7422C34.1891 69.6756 34.135 69.6215 34.0683 69.6215H29.9316Z" fill="#99B4CD"/>
<path d="M59.9999 57.8107H44.0001C43 57.8107 42.1892 56.9999 42.1892 55.9998C42.1892 54.9997 43 54.189 44.0001 54.189H59.9999C61.0002 54.189 61.8108 54.9997 61.8108 55.9998C61.8108 56.9999 61 57.8107 59.9999 57.8107Z" fill="#065270"/>
<path d="M80.0001 69.8107H44.0001C43 69.8107 42.1892 68.9999 42.1892 67.9998C42.1892 66.9997 43 66.189 44.0001 66.189H80.0001C81.0004 66.189 81.811 66.9997 81.811 67.9998C81.811 68.9999 81.0002 69.8107 80.0001 69.8107Z" fill="#065270"/>
<path d="M59.9999 77.8106H44.0001C43 77.8106 42.1892 76.9998 42.1892 75.9997C42.1892 74.9996 43 74.1888 44.0001 74.1888H59.9999C61.0002 74.1888 61.8108 74.9996 61.8108 75.9997C61.8108 76.9998 61 77.8106 59.9999 77.8106Z" fill="#065270"/>
<path d="M111.274 125C120.745 125 126.003 114.403 121.192 107.166L97.5064 68.6544C95.4159 65.1302 91.5762 63 87.4949 63C83.4296 63 79.5883 65.1169 77.5233 68.6014L53.8785 107.051C48.9014 114.538 54.3246 125 63.7092 125H111.274ZM87.4949 110.249C87.2188 110.249 86.9942 110.026 86.9942 109.746C86.9942 109.466 87.2198 109.244 87.4949 109.244C87.7694 109.244 87.9928 109.464 87.9956 109.741C87.992 110.036 87.7596 110.249 87.4949 110.249ZM87.9889 96.2447C87.9889 96.5255 87.7633 96.7475 87.4882 96.7475C87.2131 96.7475 86.9875 96.5255 86.9875 96.2447V82.743C86.9875 82.4621 87.2131 82.2402 87.4882 82.2402C87.7633 82.2402 87.9889 82.4621 87.9889 82.743V96.2447Z" fill="#FF7171" stroke="white" stroke-width="8"/>
</g>
<defs>
<clipPath id="clip0">
<rect width="120" height="120" fill="white"/>
</clipPath>
</defs>
</svg>
