<svg width="160" height="160" viewBox="0 0 160 160" fill="none" xmlns="http://www.w3.org/2000/svg">
<g clip-path="url(#clip0_9_1262)">
<circle cx="80" cy="80" r="80" fill="#F2F2F2"/>
<mask id="mask0_9_1262" style="mask-type:alpha" maskUnits="userSpaceOnUse" x="0" y="0" width="160" height="160">
<circle cx="80" cy="80" r="80" fill="#D9D9D9"/>
</mask>
<g mask="url(#mask0_9_1262)">
<path d="M40 156C40 154.895 40.8954 154 42 154H118C119.105 154 120 154.895 120 156V172C120 173.105 119.105 174 118 174H42C40.8954 174 40 173.105 40 172V156Z" fill="#D7D7D7"/>
<path d="M40 108C40 106.895 40.8954 106 42 106H118C119.105 106 120 106.895 120 108V124C120 125.105 119.105 126 118 126H42C40.8954 126 40 125.105 40 124V108Z" fill="#D7D7D7"/>
<path d="M40 132C40 130.895 40.8954 130 42 130H118C119.105 130 120 130.895 120 132V148C120 149.105 119.105 150 118 150H42C40.8954 150 40 149.105 40 148V132Z" fill="#D7D7D7"/>
<path d="M40 84C40 82.8954 40.8954 82 42 82H118C119.105 82 120 82.8954 120 84V100C120 101.105 119.105 102 118 102H42C40.8954 102 40 101.105 40 100V84Z" fill="#D7D7D7"/>
<path d="M40 60C40 58.8954 40.8954 58 42 58H118C119.105 58 120 58.8954 120 60V76C120 77.1046 119.105 78 118 78H42C40.8954 78 40 77.1046 40 76V60Z" fill="#D7D7D7"/>
<path d="M40 36C40 34.8954 40.8954 34 42 34H118C119.105 34 120 34.8954 120 36V52C120 53.1046 119.105 54 118 54H42C40.8954 54 40 53.1046 40 52V36Z" fill="#D7D7D7"/>
</g>
<g filter="url(#filter0_dd_9_1262)">
<path d="M119.154 104.415L151 136M129.769 78.0943C129.769 97.4764 113.927 113.189 94.3846 113.189C74.8422 113.189 59 97.4764 59 78.0943C59 58.7123 74.8422 43 94.3846 43C113.927 43 129.769 58.7123 129.769 78.0943Z" stroke="#FFC700" stroke-width="8" stroke-linecap="round" shape-rendering="crispEdges"/>
</g>
</g>
<defs>
<filter id="filter0_dd_9_1262" x="43" y="31" width="124" height="125" filterUnits="userSpaceOnUse" color-interpolation-filters="sRGB">
<feFlood flood-opacity="0" result="BackgroundImageFix"/>
<feColorMatrix in="SourceAlpha" type="matrix" values="0 0 0 0 0 0 0 0 0 0 0 0 0 0 0 0 0 0 127 0" result="hardAlpha"/>
<feOffset dy="4"/>
<feGaussianBlur stdDeviation="6"/>
<feComposite in2="hardAlpha" operator="out"/>
<feColorMatrix type="matrix" values="0 0 0 0 1 0 0 0 0 0.817335 0 0 0 0 0.16822 0 0 0 0.6 0"/>
<feBlend mode="normal" in2="BackgroundImageFix" result="effect1_dropShadow_9_1262"/>
<feColorMatrix in="SourceAlpha" type="matrix" values="0 0 0 0 0 0 0 0 0 0 0 0 0 0 0 0 0 0 127 0" result="hardAlpha"/>
<feOffset dy="4"/>
<feGaussianBlur stdDeviation="6"/>
<feComposite in2="hardAlpha" operator="out"/>
<feColorMatrix type="matrix" values="0 0 0 0 0 0 0 0 0 0 0 0 0 0 0 0 0 0 0.2 0"/>
<feBlend mode="normal" in2="effect1_dropShadow_9_1262" result="effect2_dropShadow_9_1262"/>
<feBlend mode="normal" in="SourceGraphic" in2="effect2_dropShadow_9_1262" result="shape"/>
</filter>
<clipPath id="clip0_9_1262">
<rect width="160" height="160" fill="white"/>
</clipPath>
</defs>
</svg>
