<svg width="24" height="24" viewBox="0 0 24 24" fill="none" xmlns="http://www.w3.org/2000/svg">
<path fill-rule="evenodd" clip-rule="evenodd" d="M14 2H22V10H14V2ZM12 2C12 0.895431 12.8954 0 14 0H22C23.1046 0 24 0.895431 24 2V10C24 11.1046 23.1046 12 22 12H14C12.8954 12 12 11.1046 12 10V2ZM0 14C0 12.8954 0.895431 12 2 12H10C11.1046 12 12 12.8954 12 14V22C12 23.1046 11.1046 24 10 24H2C0.895431 24 0 23.1046 0 22V14ZM9.09938 15.1995C9.54147 15.5306 9.63149 16.1573 9.30047 16.5994L6.30531 20.5994C6.12885 20.835 5.85751 20.981 5.56362 20.9983C5.26972 21.0156 4.98314 20.9025 4.78024 20.6892L2.7754 18.5813C2.39478 18.1811 2.41065 17.5481 2.81083 17.1675C3.21101 16.7869 3.84398 16.8027 4.2246 17.2029L5.41377 18.4532L7.69954 15.4006C8.03057 14.9585 8.6573 14.8685 9.09938 15.1995ZM18.7071 14.2929C18.3166 13.9024 17.6834 13.9024 17.2929 14.2929L15.2929 16.2929C14.9024 16.6834 14.9024 17.3166 15.2929 17.7071C15.6834 18.0976 16.3166 18.0976 16.7071 17.7071L17 17.4142V19C17 19.5523 16.5523 20 16 20H14C13.4477 20 13 20.4477 13 21C13 21.5523 13.4477 22 14 22H16C17.6569 22 19 20.6569 19 19V17.4142L19.2929 17.7071C19.6834 18.0976 20.3166 18.0976 20.7071 17.7071C21.0976 17.3166 21.0976 16.6834 20.7071 16.2929L18.7071 14.2929ZM5 6V7.58579L4.70711 7.29289C4.31658 6.90237 3.68342 6.90237 3.29289 7.29289C2.90237 7.68342 2.90237 8.31658 3.29289 8.70711L5.29289 10.7071C5.68342 11.0976 6.31658 11.0976 6.70711 10.7071L8.70711 8.70711C9.09763 8.31658 9.09763 7.68342 8.70711 7.29289C8.31658 6.90237 7.68342 6.90237 7.29289 7.29289L7 7.58579V6C7 5.44772 7.44772 5 8 5H10C10.5523 5 11 4.55228 11 4C11 3.44772 10.5523 3 10 3H8C6.34315 3 5 4.34315 5 6Z" fill="currentColor"/>
</svg>