<svg width="24" height="24" viewBox="0 0 24 24" fill="none" xmlns="http://www.w3.org/2000/svg">
<rect width="24" height="24" rx="6" fill="#F6E6FF"/>
<path d="M18 16V16.6667C18 17.0203 17.8595 17.3594 17.6095 17.6095C17.3594 17.8595 17.0203 18 16.6667 18H7.33333C6.59333 18 6 17.4 6 16.6667V7.33333C6 6.97971 6.14048 6.64057 6.39052 6.39052C6.64057 6.14048 6.97971 6 7.33333 6H16.6667C17.0203 6 17.3594 6.14048 17.6095 6.39052C17.8595 6.64057 18 6.97971 18 7.33333V8H12C11.26 8 10.6667 8.6 10.6667 9.33333V14.6667C10.6667 15.0203 10.8071 15.3594 11.0572 15.6095C11.3072 15.8595 11.6464 16 12 16H18ZM12 14.6667H18.6667V9.33333H12V14.6667ZM14.6667 13C14.4015 13 14.1471 12.8946 13.9596 12.7071C13.772 12.5196 13.6667 12.2652 13.6667 12C13.6667 11.7348 13.772 11.4804 13.9596 11.2929C14.1471 11.1054 14.4015 11 14.6667 11C14.9319 11 15.1862 11.1054 15.3738 11.2929C15.5613 11.4804 15.6667 11.7348 15.6667 12C15.6667 12.2652 15.5613 12.5196 15.3738 12.7071C15.1862 12.8946 14.9319 13 14.6667 13Z" fill="#B92EFF"/>
</svg>