<svg width="24" height="24" viewBox="0 0 24 24" fill="none" xmlns="http://www.w3.org/2000/svg">
<rect width="24" height="24" rx="6" fill="#FFE6F9"/>
<path d="M12.0007 11.6668C11.5586 11.6668 11.1347 11.4912 10.8221 11.1787C10.5096 10.8661 10.334 10.4422 10.334 10.0002C10.334 9.55814 10.5096 9.13421 10.8221 8.82165C11.1347 8.50909 11.5586 8.3335 12.0007 8.3335C12.4427 8.3335 12.8666 8.50909 13.1792 8.82165C13.4917 9.13421 13.6673 9.55814 13.6673 10.0002C13.6673 10.219 13.6242 10.4358 13.5405 10.638C13.4567 10.8402 13.3339 11.0239 13.1792 11.1787C13.0244 11.3334 12.8407 11.4562 12.6385 11.54C12.4362 11.6237 12.2195 11.6668 12.0007 11.6668ZM12.0007 5.3335C10.763 5.3335 9.57599 5.82516 8.70082 6.70033C7.82565 7.5755 7.33398 8.76249 7.33398 10.0002C7.33398 13.5002 12.0007 18.6668 12.0007 18.6668C12.0007 18.6668 16.6673 13.5002 16.6673 10.0002C16.6673 8.76249 16.1757 7.5755 15.3005 6.70033C14.4253 5.82516 13.2383 5.3335 12.0007 5.3335Z" fill="#FF15CC"/>
</svg>