<svg width="24" height="24" viewBox="0 0 24 24" fill="none" xmlns="http://www.w3.org/2000/svg">
<path d="M11.1284 5.54947C11.5107 4.86982 12.4893 4.86982 12.8716 5.54947L20.1617 18.5097C20.5367 19.1763 20.055 20 19.2902 20H4.70985C3.94502 20 3.46331 19.1763 3.83827 18.5097L11.1284 5.54947Z" fill="#A70B0B"/>
<path d="M11 13.5C11 12.9477 11.4477 12.5 12 12.5C12.5523 12.5 13 12.9477 13 13.5V16.5C13 17.0523 12.5523 17.5 12 17.5C11.4477 17.5 11 17.0523 11 16.5V13.5Z" fill="white"/>
<path d="M11 10.5C11 9.94772 11.4477 9.5 12 9.5C12.5523 9.5 13 9.94772 13 10.5C13 11.0523 12.5523 11.5 12 11.5C11.4477 11.5 11 11.0523 11 10.5Z" fill="white"/>
</svg>