<svg width="24" height="24" viewBox="0 0 24 24" fill="none" xmlns="http://www.w3.org/2000/svg">
<path fill-rule="evenodd" clip-rule="evenodd" d="M4 2H16C17.1046 2 18 2.89543 18 4V16C18 17.1046 17.1046 18 16 18H4C2.89543 18 2 17.1046 2 16V4C2 2.89543 2.89543 2 4 2ZM0 4C0 1.79086 1.79086 0 4 0H16C18.2091 0 20 1.79086 20 4V16C20 18.2091 18.2091 20 16 20H4C1.79086 20 0 18.2091 0 16V4ZM24 8C24 7.44772 23.5523 7 23 7C22.4477 7 22 7.44772 22 8V16C22 19.3137 19.3137 22 16 22H10C9.44771 22 9 22.4477 9 23C9 23.5523 9.44771 24 10 24H16C20.4183 24 24 20.4183 24 16V8Z" fill="currentColor"/>
</svg>
