<svg width="24" height="24" viewBox="0 0 24 24" fill="none" xmlns="http://www.w3.org/2000/svg">
<path fill-rule="evenodd" clip-rule="evenodd" d="M16 2H4C2.89543 2 2 2.89543 2 4V16C2 17.1046 2.89543 18 4 18H16C17.1046 18 18 17.1046 18 16V4C18 2.89543 17.1046 2 16 2ZM4 0C1.79086 0 0 1.79086 0 4V16C0 18.2091 1.79086 20 4 20H16C18.2091 20 20 18.2091 20 16V4C20 1.79086 18.2091 0 16 0H4ZM15.5994 5.19954C16.0415 5.53056 16.1315 6.1573 15.8005 6.59938L9.81014 14.5994C9.63368 14.835 9.36235 14.981 9.06845 14.9983C8.77456 15.0156 8.48798 14.9025 8.28508 14.6892L4.2754 10.4734C3.89478 10.0732 3.91065 9.44023 4.31083 9.05961C4.71101 8.67899 5.34398 8.69485 5.7246 9.09504L8.91861 12.4532L14.1995 5.40062C14.5306 4.95854 15.1573 4.86851 15.5994 5.19954ZM24 8C24 7.44772 23.5523 7 23 7C22.4477 7 22 7.44772 22 8V16C22 19.3137 19.3137 22 16 22H10C9.44771 22 9 22.4477 9 23C9 23.5523 9.44771 24 10 24H16C20.4183 24 24 20.4183 24 16V8Z" fill="currentColor"/>
</svg>
