<svg xmlns="http://www.w3.org/2000/svg" viewBox="0 0 24 24" id="qr-wallet"><path d="M3 10c.6 0 1-.4 1-1V6c0-1.1.9-2 2-2h3c.6 0 1-.4 1-1s-.4-1-1-1H6C3.8 2 2 3.8 2 6v3c0 .6.4 1 1 1zm15-8h-3c-.6 0-1 .4-1 1s.4 1 1 1h3c1.1 0 2 .9 2 2v3c0 .6.4 1 1 1s1-.4 1-1V6c0-2.2-1.8-4-4-4zm3 12c-.6 0-1 .4-1 1v3c0 1.1-.9 2-2 2h-3c-.6 0-1 .4-1 1s.4 1 1 1h3c2.2 0 4-1.8 4-4v-3c0-.6-.4-1-1-1zM6 22h3c.6 0 1-.4 1-1s-.4-1-1-1H6c-1.1 0-2-.9-2-2v-3c0-.6-.4-1-1-1s-1 .4-1 1v3c0 2.2 1.8 4 4 4z"></path><path d="M11 6c0-.6-.4-1-1-1H6c-.6 0-1 .4-1 1v4c0 .6.4 1 1 1h4c.6 0 1-.4 1-1V6zM9 9H7V7h2v2zm9 10c.6 0 1-.4 1-1v-4c0-.6-.4-1-1-1h-4c-.6 0-1 .4-1 1v4c0 .6.4 1 1 1h4zm-3-4h2v2h-2v-2zM14 5c-.6 0-1 .4-1 1v3c0 .6.4 1 1 1h3c0 .6.4 1 1 1s1-.4 1-1V9c0-.6-.4-1-1-1h-3V6c0-.6-.4-1-1-1z"></path><path d="M18 7c.6 0 1-.4 1-1s-.4-1-1-1h-1c-.6 0-1 .4-1 1s.4 1 1 1h1zM7 19h2c.6 0 1-.4 1-1s-.4-1-1-1H8v-3c0-.6-.4-1-1-1H6c-.6 0-1 .4-1 1s.4 1 1 1v3c0 .6.4 1 1 1zm3-6c-.6 0-1 .4-1 1v1c0 .6.4 1 1 1s1-.4 1-1v-1c0-.6-.4-1-1-1z"></path></svg>