<?xml version="1.0" encoding="utf-8"?>
<!-- Svg Vector Icons : http://www.onlinewebfonts.com/icon -->
<!DOCTYPE svg PUBLIC "-//W3C//DTD SVG 1.1//EN" "http://www.w3.org/Graphics/SVG/1.1/DTD/svg11.dtd">
<svg version="1.1" xmlns="http://www.w3.org/2000/svg" xmlns:xlink="http://www.w3.org/1999/xlink" x="0px" y="0px" viewBox="0 0 1000 1000" enable-background="new 0 0 1000 1000" xml:space="preserve">
<metadata> Svg Vector Icons : http://www.onlinewebfonts.com/icon </metadata>
<g><g transform="matrix(1 0 0 -1 0 480)"><path d="M378.3,138l-1.9,218.9c0,12.7-7.6,19.7-22.8,20.9h-15.2c-6.3,0-11.4-2.2-15.2-6.7s-5.7-9.8-5.7-16.2V206.5L64.2,457.7c-6.3,6.3-13.6,9.5-21.9,9.5c-8.2,0-15.5-3.2-21.9-9.5c-14-14-14-28.6,0-43.8l253.1-249.3H129c-15.2,0-23.5-7.6-24.7-22.8v-15.2c0-6.3,2.2-11.7,6.7-16.2c4.4-4.4,9.8-6.7,16.2-6.7h218.9h11.4c6.3,0,11.4,1.9,15.2,5.7c3.8,3.8,5.7,8.9,5.7,15.2l-1.9,11.4L378.3,138z M627.6,109.4c3.8-3.8,8.9-5.7,15.2-5.7h11.4h218.9c6.3,0,11.7,2.2,16.2,6.7c4.4,4.4,6.7,9.8,6.7,16.2v15.2c-1.3,15.2-9.5,22.8-24.7,22.8H726.6L979.8,414c14,15.2,13.6,29.8-1,43.8c-14.6,14-28.9,14-42.8,0L682.8,206.5V355c0,6.3-1.9,11.7-5.7,16.2c-3.8,4.4-8.9,6.7-15.2,6.7h-15.2c-15.2-1.3-22.8-8.2-22.8-20.9L621.9,138l1.9-1.9l-1.9-11.4C621.9,118.3,623.8,113.2,627.6,109.4z M372.6-149.4c-3.8,5.1-8.9,7.6-15.2,7.6l-11.4-1.9l-218.9,1.9c-6.3,0-11.7-2.2-16.2-6.7c-4.4-4.4-6.7-9.8-6.7-16.2v-15.2c1.3-16.5,9.5-24.1,24.7-22.8h144.7L20.5-454c-5.1-6.3-7.6-13.6-7.6-21.9s2.9-15.5,8.6-21.9s12.7-9.5,20.9-9.5c8.2,0,15.5,3.2,21.9,9.5l253.1,251.2V-395c0-6.3,1.9-11.7,5.7-16.2c3.8-4.4,8.9-6.7,15.2-6.7h15.2c15.2,1.3,22.8,8.2,22.8,20.9l1.9,218.9l-1.9,1.9l1.9,11.4C378.3-158.3,376.4-153.2,372.6-149.4z M726.6-202.7h144.7c15.2-1.3,23.5,6.3,24.7,22.8v15.2c0,6.3-2.2,11.7-6.7,16.2c-4.4,4.4-9.8,6.7-16.2,6.7H654.3H641c-5.1,0-10.2-2.5-15.2-7.6c-3.8-3.8-5.7-8.9-5.7-15.2l1.9-11.4L620-178l1.9-218.9c0-12.7,7.6-19.7,22.8-20.9H660c6.3,0,11.7,2.2,16.2,6.7c4.4,4.4,6.7,9.8,6.7,16.2l-1.9,148.5l255-251.2c14-14,28.2-14,42.8,0s14.9,28.5,1,43.8L726.6-202.7z"/></g></g>
</svg>