<svg width="40" height="40" viewBox="0 0 40 40" fill="none" xmlns="http://www.w3.org/2000/svg">
<circle cx="20" cy="20" r="20" fill="#E2E1DF"/>
<path d="M16.5687 21.9231C13.8236 21.9231 8.33337 23.2064 8.33337 25.7692V28.3333H24.804V25.7692C24.804 23.2064 19.3138 21.9231 16.5687 21.9231ZM25.6563 22.1284C26.7942 23.0577 27.5491 24.2539 27.5491 25.7692V28.3333H31.6667V25.7692C31.6667 23.7936 28.4083 22.5816 25.6563 22.1284ZM16.5687 19.359C18.843 19.359 20.6726 17.6359 20.6726 15.5128C20.6726 13.3897 18.843 11.6667 16.5687 11.6667C14.2944 11.6667 12.451 13.3897 12.451 15.5128C12.451 17.6359 14.2944 19.359 16.5687 19.359ZM23.4314 19.359C25.7057 19.359 27.5353 17.6359 27.5353 15.5128C27.5353 13.3897 25.7057 11.6667 23.4314 11.6667C22.9936 11.6667 22.5722 11.7321 22.1755 11.8513C22.9538 12.891 23.4177 14.15 23.4177 15.5128C23.4177 16.8756 22.9538 18.1346 22.1755 19.1744C22.5722 19.2936 22.9936 19.359 23.4314 19.359Z" fill="#232320"/>
</svg>
