<?xml version="1.0" encoding="utf-8"?>
<!-- Svg Vector Icons : http://www.onlinewebfonts.com/icon -->
<!DOCTYPE svg PUBLIC "-//W3C//DTD SVG 1.1//EN" "http://www.w3.org/Graphics/SVG/1.1/DTD/svg11.dtd">
<svg version="1.1" xmlns="http://www.w3.org/2000/svg" xmlns:xlink="http://www.w3.org/1999/xlink" x="0px" y="0px" viewBox="0 0 1000 1000" enable-background="new 0 0 1000 1000" xml:space="preserve">
<metadata> Svg Vector Icons : http://www.onlinewebfonts.com/icon </metadata>
<g><g transform="matrix(1 0 0 -1 0 480)"><path d="M666.5,102.5l264.1,262.2l-1.9-147.4c0-6.4,2.2-11.8,6.7-16.3s9.9-6.7,16.3-6.7H967c15.3,0,23,6.4,23,19.1v222V447c0,6.4-1.9,11.5-5.7,15.3s-8.9,5.7-15.3,5.7h-11.5L737.3,470c-5.1,0-9.9-2.2-14.4-6.7s-7.3-9.9-8.6-16.3v-17.2c2.6-15.3,11.5-22.3,26.8-21.1l143.6-1.9L622.5,146.5c-14-14-13.7-28.4,1-43.1C638.1,88.8,652.5,88.5,666.5,102.5z M335.4-142.5L71.3-404.7v147.4c0,6.4-1.9,11.8-5.7,16.3s-8.9,6.7-15.3,6.7H33c-15.3,0-23-6.4-23-19.1v-222V-487c0-6.4,1.3-11.5,3.8-15.3c5.1-3.8,10.8-5.7,17.2-5.7h11.5l220.1-1.9c6.4,0,11.8,2.2,16.3,6.7s6.7,9.9,6.7,16.3v17.2c-1.3,15.3-9.6,22.3-24.9,21.1l-145.5,1.9l262.2,260.3c14,14,14,28.4,0,43.1S349.4-128.5,335.4-142.5z M990-475.5v222c0,12.8-7.7,19.1-23,19.1h-15.3c-6.4,0-11.8-2.2-16.3-6.7s-6.7-9.9-6.7-16.3l1.9-147.4L666.5-142.5c-14,14-28.4,13.7-43.1-1s-15-29-1-43.1l262.2-260.3l-143.6-1.9c-15.3,1.3-24.2-5.7-26.8-21.1V-487c1.3-6.4,4.1-11.8,8.6-16.3s9.3-6.7,14.4-6.7l220.1,1.9h11.5c6.4,0,12.1,1.9,17.2,5.7c2.6,3.8,3.8,8.9,3.8,15.3V-475.5z M115.3,406.8l145.5,1.9c15.3-1.3,23.6,5.7,24.9,21.1V447c0,6.4-2.2,11.8-6.7,16.3s-9.9,6.7-16.3,6.7l-220.1-1.9H31.1c-6.4,0-12.1-1.9-17.2-5.7c-2.6-3.8-3.8-8.9-3.8-15.3v-11.5v-222c0-12.8,7.7-19.1,23-19.1h17.2c6.4,0,11.5,2.2,15.3,6.7s5.7,9.9,5.7,16.3v147.4l264.1-262.2c14-14,28.1-13.7,42.1,1c14,14.7,14,29,0,43.1L115.3,406.8z"/></g></g>
</svg>