<svg width="512" height="512" viewBox="0 0 512 512" fill="none" xmlns="http://www.w3.org/2000/svg">
<rect width="512" height="512" fill="#1E1E1E"/>
<g clip-path="url(#clip0_0_1)">
<rect width="512" height="512" fill="white"/>
<rect x="146" y="254.828" width="340" height="234.483" rx="36" fill="#FED049"/>
<path d="M354.851 439.055H365.007C365.93 439.055 368.7 438.75 369.931 443.024C370.854 445.772 372.085 450.047 373.932 456.458H374.547C376.394 449.741 377.933 445.162 378.548 443.024C379.779 438.75 382.857 439.055 384.088 439.055H393.628V468.366H383.78V450.963H383.165L377.933 468.366H370.547L365.315 450.963H364.391V468.366H354.851M397.629 439.055H407.478V456.458H408.401L414.864 442.108C416.095 439.361 418.865 439.055 418.865 439.055H428.097V468.366H418.249V450.963H417.634L411.171 465.312C409.94 468.06 406.862 468.366 406.862 468.366H397.629M441.331 459.511V468.366H432.098V453.1H462.259C461.028 456.764 456.719 459.511 451.795 459.511" fill="white"/>
<path d="M463.053 450.474C464.28 445.198 460.6 438.75 452.627 438.75H431.776C432.389 444.905 437.909 450.474 443.735 450.474" fill="white"/>
<rect x="204.621" y="444.612" width="17.5862" height="35.1724" rx="8.7931" transform="rotate(90 204.621 444.612)" fill="white"/>
<rect x="224.069" y="374.603" width="21.3103" height="50.6207" rx="10.6552" transform="rotate(90 224.069 374.603)" fill="#FED049" stroke="white" stroke-width="8"/>
<rect x="302.474" y="374.603" width="21.3103" height="50.6207" rx="10.6552" transform="rotate(90 302.474 374.603)" fill="#FED049" stroke="white" stroke-width="8"/>
<rect x="380.879" y="374.603" width="21.3103" height="50.6207" rx="10.6552" transform="rotate(90 380.879 374.603)" fill="#FED049" stroke="white" stroke-width="8"/>
<rect x="459.284" y="374.603" width="21.3103" height="50.6207" rx="10.6552" transform="rotate(90 459.284 374.603)" fill="#FED049" stroke="white" stroke-width="8"/>
<rect x="283.362" y="444.612" width="17.5862" height="68.8793" rx="8.79311" transform="rotate(90 283.362 444.612)" fill="white"/>
<rect x="163.586" y="272.414" width="73.2759" height="35.1724" rx="16" fill="white"/>
<path d="M453.5 254.828V254.828C471.449 254.828 486 269.378 486 287.328V453.31C486 473.193 469.882 489.31 450 489.31H182C162.118 489.31 146 472.882 146 453V453H425.5C440.964 453 453.5 440.464 453.5 425V254.828Z" fill="#58606B" fill-opacity="0.16"/>
<rect x="50.1997" y="77.306" width="220.364" height="132.218" rx="16" fill="#FA8686"/>
<path d="M50.1997 93.306C50.1997 84.4695 57.3632 77.306 66.1997 77.306H101.618V209.524H66.1997C57.3632 209.524 50.1997 202.361 50.1997 193.524V93.306Z" fill="#E5E4E4"/>
<path d="M116.309 95.997C116.309 93.7878 118.1 91.997 120.309 91.997H182.091C184.3 91.997 186.091 93.7878 186.091 95.997V110.033C186.091 112.242 184.3 114.033 182.091 114.033H120.309C118.1 114.033 116.309 112.242 116.309 110.033V95.997Z" fill="#E5E4E4"/>
<path d="M219.146 77.306H258.564C265.191 77.306 270.564 82.6786 270.564 89.306V197.524C270.564 204.152 265.191 209.524 258.564 209.524H219.146V77.306Z" fill="#E5E4E4"/>
<path d="M167.727 183.815C167.727 177.73 172.66 172.797 178.745 172.797H193.436C199.521 172.797 204.454 177.73 204.454 183.815V183.815C204.454 189.9 199.521 194.833 193.436 194.833H178.745C172.66 194.833 167.727 189.9 167.727 183.815V183.815Z" fill="white"/>
<circle cx="75.9088" cy="103.015" r="11.0182" fill="#FA8686"/>
<circle cx="244.855" cy="183.815" r="11.0182" fill="#FA8686"/>
<path d="M21.1999 90.0127C19.1 82.1756 23.7508 74.12 31.588 72.0201L224.316 20.3787C232.153 18.2787 240.209 22.9296 242.309 30.7668L271.306 138.987C273.406 146.824 268.755 154.88 260.918 156.98L68.1902 208.621C60.353 210.721 52.2975 206.07 50.1975 198.233L21.1999 90.0127Z" fill="black" fill-opacity="0.16"/>
<path d="M20.817 89.3438C18.717 81.5067 23.3679 73.4511 31.205 71.3512L215.68 21.9214C223.517 19.8214 231.572 24.4723 233.672 32.3094L260.288 131.642C262.388 139.479 257.737 147.535 249.9 149.635L65.4257 199.064C57.5885 201.164 49.533 196.513 47.433 188.676L20.817 89.3438Z" fill="#FA8686"/>
<path d="M20.817 89.3438C18.717 81.5067 23.3679 73.4511 31.205 71.3512L66.6809 61.8454C80.0449 111.721 87.5375 139.683 100.902 189.559L65.4257 199.064C57.5885 201.164 49.533 196.513 47.433 188.676L20.817 89.3438Z" fill="#E5E4E4"/>
<path d="M87.5253 82.8763C85.9503 76.9984 89.4385 70.9567 95.3163 69.3818L141.435 57.0243C147.313 55.4494 153.354 58.9375 154.929 64.8154C156.504 70.6932 153.016 76.7349 147.138 78.3098L101.02 90.6673C95.1419 92.2423 89.1002 88.7541 87.5253 82.8763Z" fill="white"/>
<path d="M180.204 31.4271L215.68 21.9214C223.517 19.8214 231.572 24.4723 233.672 32.3094L260.288 131.642C262.388 139.479 257.737 147.535 249.9 149.635L214.424 159.14L180.204 31.4271Z" fill="#E5E4E4"/>
<path d="M158.104 147.615C156.529 141.737 160.017 135.696 165.895 134.121L180.085 130.318C185.963 128.743 192.005 132.232 193.58 138.109C195.155 143.987 191.667 150.029 185.789 151.604L171.599 155.406C165.721 156.981 159.679 153.493 158.104 147.615Z" fill="white"/>
<path d="M59.1446 90.4808C60.7195 96.3587 57.2314 102.4 51.3535 103.975C45.4757 105.55 39.434 102.062 37.859 96.1843C36.2841 90.3064 39.7722 84.2648 45.6501 82.6898C51.5279 81.1148 57.5696 84.603 59.1446 90.4808Z" fill="#FA8686"/>
<path d="M243.246 124.801C244.821 130.679 241.333 136.721 235.455 138.296C229.577 139.871 223.536 136.383 221.961 130.505C220.386 124.627 223.874 118.585 229.752 117.01C235.63 115.435 241.671 118.924 243.246 124.801Z" fill="#FA8686"/>
<path d="M306 125.5H323C347.301 125.5 367 145.199 367 169.5V218M367 218L340.5 191.5M367 218L393.5 191.5" stroke="#58606B" stroke-width="16" stroke-linecap="round" stroke-linejoin="round"/>
</g>
<defs>
<clipPath id="clip0_0_1">
<rect width="512" height="512" fill="white"/>
</clipPath>
</defs>
</svg>
