<svg width="174" height="174" viewBox="0 0 174 174" fill="none" xmlns="http://www.w3.org/2000/svg">
<rect width="174" height="174" fill="#F68900"/>
<rect x="20" y="20" width="134" height="134" rx="67" fill="white"/>
<path d="M70.3711 87.1768H63.7744V81.6055H68.8672C70.0977 81.6055 71.0889 81.332 71.8408 80.7852C72.5928 80.2383 73.1396 79.4635 73.4814 78.4609C73.846 77.4583 74.0283 76.2848 74.0283 74.9404C74.0283 73.8239 73.8232 72.8099 73.4131 71.8984C73.0029 70.987 72.3649 70.2578 71.499 69.7109C70.6559 69.1413 69.585 68.8564 68.2861 68.8564C67.2835 68.8564 66.3835 69.0957 65.5859 69.5742C64.7884 70.0299 64.1504 70.7021 63.6719 71.5908C63.2161 72.4567 62.9883 73.4935 62.9883 74.7012H53.042C53.042 72.4909 53.4408 70.5199 54.2383 68.7881C55.0586 67.0563 56.1751 65.5752 57.5879 64.3447C59.0007 63.1143 60.6185 62.18 62.4414 61.542C64.2871 60.904 66.224 60.585 68.252 60.585C70.6445 60.585 72.7979 60.8926 74.7119 61.5078C76.6488 62.1003 78.3008 62.9889 79.668 64.1738C81.0579 65.3587 82.1175 66.8398 82.8467 68.6172C83.5986 70.3717 83.9746 72.4111 83.9746 74.7354C83.9746 76.4443 83.6442 78.0508 82.9834 79.5547C82.3454 81.0586 81.4111 82.3802 80.1807 83.5195C78.973 84.6589 77.5374 85.5589 75.874 86.2197C74.2334 86.8577 72.3991 87.1768 70.3711 87.1768ZM63.7744 84.1348H70.3711C72.6042 84.1348 74.5866 84.4196 76.3184 84.9893C78.0729 85.5589 79.5654 86.3906 80.7959 87.4844C82.0492 88.5781 82.9948 89.9339 83.6328 91.5518C84.2936 93.1468 84.624 94.9811 84.624 97.0547C84.624 99.3789 84.2139 101.452 83.3936 103.275C82.596 105.076 81.4681 106.602 80.0098 107.855C78.5514 109.109 76.8197 110.054 74.8145 110.692C72.832 111.33 70.6445 111.649 68.252 111.649C66.3379 111.649 64.4466 111.376 62.5781 110.829C60.7096 110.259 59.012 109.394 57.4854 108.231C55.9587 107.069 54.7396 105.577 53.8281 103.754C52.9167 101.931 52.4609 99.7435 52.4609 97.1914H62.4756C62.4756 98.3307 62.7148 99.3789 63.1934 100.336C63.6947 101.293 64.3783 102.045 65.2441 102.592C66.1328 103.139 67.1468 103.412 68.2861 103.412C69.6305 103.412 70.7699 103.127 71.7041 102.558C72.6611 101.988 73.3903 101.213 73.8916 100.233C74.3929 99.2308 74.6436 98.1257 74.6436 96.918C74.6436 95.5964 74.5182 94.4798 74.2676 93.5684C74.0169 92.6341 73.641 91.8822 73.1396 91.3125C72.6611 90.7201 72.0573 90.2871 71.3281 90.0137C70.6217 89.7402 69.79 89.6035 68.833 89.6035H63.7744V84.1348ZM112.825 94.4229H122.771C122.635 98.1598 121.883 101.316 120.515 103.891C119.148 106.443 117.2 108.38 114.671 109.701C112.164 111.023 109.134 111.684 105.579 111.684C102.822 111.684 100.372 111.228 98.2303 110.316C96.0883 109.382 94.2654 108.015 92.7615 106.215C91.2576 104.415 90.1183 102.193 89.3436 99.5498C88.5916 96.8838 88.2156 93.819 88.2156 90.3555V81.9131C88.2156 78.4495 88.6144 75.3848 89.4119 72.7188C90.2322 70.0527 91.3943 67.8197 92.8982 66.0195C94.4249 64.1966 96.2592 62.8294 98.4012 61.918C100.566 60.9837 103.004 60.5166 105.716 60.5166C109.339 60.5166 112.369 61.2002 114.807 62.5674C117.246 63.9346 119.125 65.9284 120.447 68.5488C121.791 71.1465 122.6 74.3252 122.874 78.085H112.893C112.825 75.7152 112.552 73.8581 112.073 72.5137C111.617 71.1465 110.888 70.1895 109.886 69.6426C108.883 69.0729 107.493 68.7881 105.716 68.7881C104.394 68.7881 103.255 69.0273 102.298 69.5059C101.341 69.9616 100.554 70.7021 99.9393 71.7275C99.324 72.7529 98.8683 74.0973 98.5721 75.7607C98.2986 77.4242 98.1619 79.4521 98.1619 81.8447V90.3555C98.1619 92.7025 98.2872 94.7077 98.5379 96.3711C98.7885 98.0117 99.1873 99.3561 99.7342 100.404C100.281 101.452 101.022 102.216 101.956 102.694C102.913 103.173 104.121 103.412 105.579 103.412C107.265 103.412 108.621 103.161 109.646 102.66C110.694 102.159 111.469 101.259 111.971 99.96C112.472 98.6611 112.757 96.8154 112.825 94.4229Z" fill="#F68900"/>
</svg>
