<svg width="20" height="15" viewBox="0 0 20 15" fill="none" xmlns="http://www.w3.org/2000/svg">
<path d="M5.5293 7.53369H3.73877V6.02148H5.12109C5.45508 6.02148 5.72412 5.94727 5.92822 5.79883C6.13232 5.65039 6.28076 5.4401 6.37354 5.16797C6.47249 4.89583 6.52197 4.57731 6.52197 4.2124C6.52197 3.90934 6.46631 3.63411 6.35498 3.38672C6.24365 3.13932 6.07048 2.94141 5.83545 2.79297C5.60661 2.63835 5.31592 2.56104 4.96338 2.56104C4.69124 2.56104 4.44694 2.62598 4.23047 2.75586C4.014 2.87956 3.84082 3.06201 3.71094 3.30322C3.58724 3.53825 3.52539 3.81966 3.52539 4.14746H0.825684C0.825684 3.54753 0.933919 3.01253 1.15039 2.54248C1.37305 2.07243 1.67611 1.67041 2.05957 1.33643C2.44303 1.00244 2.88216 0.748861 3.37695 0.575684C3.87793 0.402507 4.40365 0.315918 4.9541 0.315918C5.60352 0.315918 6.18799 0.399414 6.70752 0.566406C7.23324 0.727214 7.68164 0.968424 8.05273 1.29004C8.43001 1.61165 8.71761 2.01367 8.91553 2.49609C9.11963 2.97233 9.22168 3.52588 9.22168 4.15674C9.22168 4.62061 9.132 5.05664 8.95264 5.46484C8.77946 5.87305 8.52588 6.23177 8.19189 6.54102C7.8641 6.85026 7.47445 7.09456 7.02295 7.27393C6.57764 7.4471 6.07975 7.53369 5.5293 7.53369ZM3.73877 6.70801H5.5293C6.13542 6.70801 6.6735 6.78532 7.14355 6.93994C7.61979 7.09456 8.0249 7.32031 8.35889 7.61719C8.69906 7.91406 8.95573 8.28206 9.12891 8.72119C9.30827 9.15413 9.39795 9.65202 9.39795 10.2148C9.39795 10.8457 9.28662 11.4085 9.06396 11.9033C8.84749 12.3919 8.54134 12.8063 8.14551 13.1465C7.74967 13.4867 7.27962 13.7433 6.73535 13.9165C6.19727 14.0897 5.60352 14.1763 4.9541 14.1763C4.43457 14.1763 3.92122 14.1021 3.41406 13.9536C2.9069 13.799 2.44613 13.564 2.03174 13.2485C1.61735 12.9331 1.28646 12.528 1.03906 12.0332C0.791667 11.5384 0.667969 10.9447 0.667969 10.252H3.38623C3.38623 10.5612 3.45117 10.8457 3.58105 11.1055C3.71712 11.3652 3.90267 11.5693 4.1377 11.7178C4.37891 11.8662 4.65413 11.9404 4.96338 11.9404C5.32829 11.9404 5.63753 11.8631 5.89111 11.7085C6.15088 11.5539 6.3488 11.3436 6.48486 11.0776C6.62093 10.8055 6.68896 10.5055 6.68896 10.1777C6.68896 9.81901 6.65495 9.51595 6.58691 9.26855C6.51888 9.01497 6.41683 8.81087 6.28076 8.65625C6.15088 8.49544 5.98698 8.37793 5.78906 8.30371C5.59733 8.22949 5.37158 8.19238 5.11182 8.19238H3.73877V6.70801ZM17.0525 9.50049H19.7522C19.7151 10.5148 19.511 11.3714 19.1399 12.0703C18.7688 12.763 18.24 13.2887 17.5535 13.6475C16.8731 14.0062 16.0505 14.1855 15.0857 14.1855C14.3373 14.1855 13.6725 14.0618 13.0911 13.8145C12.5097 13.5609 12.0149 13.1898 11.6067 12.7012C11.1985 12.2126 10.8893 11.6095 10.679 10.8921C10.4749 10.1685 10.3728 9.33659 10.3728 8.39648V6.10498C10.3728 5.16488 10.481 4.33301 10.6975 3.60938C10.9202 2.88574 11.2356 2.27962 11.6438 1.79102C12.0582 1.29622 12.5561 0.92513 13.1375 0.677734C13.725 0.424154 14.3868 0.297363 15.1228 0.297363C16.1062 0.297363 16.9288 0.48291 17.5906 0.854004C18.2524 1.2251 18.7626 1.76628 19.1213 2.47754C19.4863 3.18262 19.7058 4.04541 19.78 5.06592H17.0711C17.0525 4.42269 16.9783 3.91862 16.8484 3.55371C16.7247 3.18262 16.5268 2.92285 16.2546 2.77441C15.9825 2.61979 15.6052 2.54248 15.1228 2.54248C14.7641 2.54248 14.4548 2.60742 14.1951 2.7373C13.9353 2.861 13.7219 3.06201 13.5549 3.34033C13.3879 3.61865 13.2643 3.98356 13.1838 4.43506C13.1096 4.88656 13.0725 5.43701 13.0725 6.08643V8.39648C13.0725 9.03353 13.1065 9.5778 13.1746 10.0293C13.2426 10.4746 13.3508 10.8395 13.4993 11.124C13.6477 11.4085 13.8487 11.6157 14.1023 11.7456C14.3621 11.8755 14.6899 11.9404 15.0857 11.9404C15.5434 11.9404 15.9114 11.8724 16.1897 11.7363C16.4742 11.6003 16.6845 11.356 16.8206 11.0034C16.9566 10.6509 17.0339 10.1499 17.0525 9.50049Z" fill="#999999"/>
</svg>
