<svg width="24" height="24" viewBox="0 0 24 24" fill="none" xmlns="http://www.w3.org/2000/svg">
<path fill-rule="evenodd" clip-rule="evenodd" d="M12.1523 16.5411C12.4431 15.1693 13.1356 13.946 14.101 13H13.12L12 9.56L10.88 13H7.27L10.19 15.11L9.08 18.56L12 16.43L12.1523 16.5411ZM19 11V9H5V20H12.2899C12.5049 20.7224 12.8334 21.396 13.2547 22H5C4.46957 22 3.96086 21.7893 3.58579 21.4142C3.21071 21.0391 3 20.5304 3 20V6C3 5.46957 3.21071 4.96086 3.58579 4.58579C3.96086 4.21071 4.46957 4 5 4H6V2H8V4H16V2H18V4H19C19.5304 4 20.0391 4.21071 20.4142 4.58579C20.7893 4.96086 21 5.46957 21 6V11.2899C20.3663 11.1013 19.695 11 19 11Z" fill="#F0B904"/>
<path fill-rule="evenodd" clip-rule="evenodd" d="M24 18C24 20.7614 21.7614 23 19 23C16.2386 23 14 20.7614 14 18C14 15.2386 16.2386 13 19 13C21.7614 13 24 15.2386 24 18ZM18.5742 15.1762C18.4614 15.2888 18.3979 15.4415 18.3979 15.6009C18.3979 15.7602 18.4614 15.913 18.5742 16.0256L19.9494 17.4003H16.6C16.2686 17.4003 16 17.6689 16 18.0002C16 18.3314 16.2686 18.6 16.6 18.6H19.9505L18.5754 19.9747C18.3408 20.2093 18.3408 20.5896 18.5754 20.8241C18.81 21.0586 19.1904 21.0586 19.425 20.8241L21.8238 18.4249C21.8539 18.3949 21.8804 18.3621 21.9032 18.327C21.9644 18.233 22 18.1207 22 18.0002C22 17.8746 21.9614 17.758 21.8954 17.6617C21.8744 17.631 21.8505 17.6021 21.8238 17.5755L21.8227 17.5744L19.4238 15.1762C19.3113 15.0634 19.1584 15 18.999 15C18.8396 15 18.6868 15.0634 18.5742 15.1762Z" fill="black"/>
</svg>
