<svg width="24" height="24" viewBox="0 0 24 24" fill="none" xmlns="http://www.w3.org/2000/svg">
<path d="M16 15.4999C13.4706 15.4999 11.3689 14.9807 10 14.1089C10 14.715 10 15.1148 10 15.4999C10 16.8462 12.6863 17.9374 16 17.9374C19.3137 17.9374 22 16.8462 22 15.4999C22 15.1148 22 14.715 22 14.1089C20.6312 14.9807 18.5295 15.4999 16 15.4999Z" fill="currentColor"/>
<path d="M16 19.5626C13.4706 19.5626 11.3689 19.0434 10 18.1716C10 18.7778 10 19.1775 10 19.5626C10 20.9089 12.6863 22.0001 16 22.0001C19.3137 22.0001 22 20.9089 22 19.5626C22 19.1775 22 18.7778 22 18.1716C20.6312 19.0434 18.5295 19.5626 16 19.5626Z" fill="currentColor"/>
<path d="M16 13.875C19.3137 13.875 22 12.7837 22 11.4375C22 10.0913 19.3137 9 16 9C12.6863 9 10 10.0913 10 11.4375C10 12.7837 12.6863 13.875 16 13.875Z" fill="currentColor"/>
<path fill-rule="evenodd" clip-rule="evenodd" d="M2.83333 13.6667H8V12.8333V12H3.66667V10.3333H7.99996V8.66667H3.66667V3.66667H17V7H18.6667V2.83333C18.6667 2.37333 18.2933 2 17.8333 2H2.83333C2.37333 2 2 2.37333 2 2.83333V12.8333C2 13.2933 2.37333 13.6667 2.83333 13.6667Z" fill="currentColor"/>
</svg>
