<svg width="24" height="24" viewBox="0 0 24 24" fill="none" xmlns="http://www.w3.org/2000/svg">
<path d="M8.89909 21.2469C9.00703 21.8022 9.2268 22.1917 9.72422 22.5272C10.2216 22.8627 10.6651 22.9206 11.2204 22.8126C11.7757 22.7047 12.1652 22.4849 12.5007 21.9875C12.8362 21.4901 12.8941 21.0466 12.7861 20.4913C12.6782 19.936 12.3755 19.4906 11.961 19.211C11.5465 18.9314 11.0201 18.8176 10.4648 18.9256C9.90954 19.0335 9.52005 19.2533 9.18453 19.7507C8.84902 20.2481 8.79115 20.6916 8.89909 21.2469ZM3.11143 14.4481C2.83183 14.8626 2.71804 15.389 2.82598 15.9443C2.93392 16.4996 3.2366 16.945 3.65112 17.2246L11.4798 5.61807C11.0653 5.33847 10.5389 5.22468 9.98365 5.33262C9.42836 5.44056 8.98295 5.74324 8.70336 6.15776L3.11143 14.4481ZM20.9081 5.94642L17.5919 3.70965C17.3123 4.12417 17.1985 4.65053 17.3065 5.20582C17.4144 5.76111 17.7171 6.20651 18.1316 6.48611L16.454 8.97322L12.3089 6.17726L4.48015 17.7838L7.96211 20.1324C8.0759 19.606 8.24366 19.3573 8.3555 19.1915C8.80285 18.5283 9.443 18.1157 10.2759 17.9538C11.1089 17.7919 11.857 17.9346 12.5202 18.382L20.9081 5.94642Z" fill="currentColor"/>
</svg>
