<svg width="24" height="24" viewBox="0 0 24 24" fill="none" xmlns="http://www.w3.org/2000/svg">
<path fill-rule="evenodd" clip-rule="evenodd" d="M12 18C12 20.7614 14.2386 23 17 23C19.7614 23 22 20.7614 22 18C22 15.2386 19.7614 13 17 13C14.2386 13 12 15.2386 12 18ZM14.905 15.9065C15.1284 15.6832 15.4907 15.6832 15.7141 15.9065L17.0239 17.217L18.3336 15.9065C18.557 15.6832 18.9193 15.6832 19.1427 15.9065C19.3661 16.1299 19.3661 16.4921 19.1427 16.7154L17.8319 18.0247L19.1427 19.334C19.3661 19.5574 19.3661 19.9195 19.1427 20.1429C18.9193 20.3663 18.557 20.3663 18.3336 20.1429L17.0239 18.8325L15.7141 20.1429C15.4907 20.3663 15.1284 20.3663 14.905 20.1429C14.6816 19.9195 14.6816 19.5574 14.905 19.334L16.2159 18.0247L14.905 16.7154C14.6816 16.4921 14.6816 16.1299 14.905 15.9065Z" fill="black"/>
<path d="M5.09337 21.2469C5.20131 21.8021 5.42108 22.1916 5.9185 22.5271C6.41588 22.8627 6.85938 22.9205 7.41468 22.8126C7.96998 22.7047 8.35948 22.4849 8.69498 21.9875C9.03048 21.49 9.08838 21.0466 8.98038 20.4913C8.87248 19.936 8.56978 19.4906 8.15528 19.211C7.74078 18.9314 7.21438 18.8176 6.65908 18.9256C6.10382 19.0335 5.71433 19.2533 5.37881 19.7507C5.0433 20.2481 4.98543 20.6916 5.09337 21.2469ZM0.325616 15.0463C0.0460157 15.4608 -0.0677743 15.9872 0.0401657 16.5425C0.148106 17.0978 0.450786 17.5432 0.865306 17.8228L8.69399 6.21627C8.27949 5.93668 7.75309 5.82289 7.19784 5.93083C6.64255 6.03876 6.19714 6.34144 5.91755 6.75596L0.325616 15.0463ZM17.1024 5.94643L13.7862 3.70966C13.5066 4.12418 13.3928 4.65053 13.5008 5.20583C13.6087 5.76112 13.9114 6.20652 14.3259 6.48612L12.6483 8.97323L9.52309 6.77547L1.69434 18.382L4.15639 20.1324C4.27018 19.606 4.43794 19.3573 4.54978 19.1915C4.99713 18.5283 5.63728 18.1157 6.47018 17.9538C7.30318 17.7919 8.05128 17.9346 8.71448 18.382L17.1024 5.94643Z" fill="#F63737"/>
</svg>
