<svg width="24" height="24" viewBox="0 0 24 24" fill="none" xmlns="http://www.w3.org/2000/svg">
<path fill-rule="evenodd" clip-rule="evenodd" d="M22 18C22 20.7614 19.7614 23 17 23C14.2386 23 12 20.7614 12 18C12 15.2386 14.2386 13 17 13C19.7614 13 22 15.2386 22 18ZM16.5742 15.1762C16.4614 15.2888 16.3979 15.4415 16.3979 15.6009C16.3979 15.7602 16.4614 15.913 16.5742 16.0256L17.9494 17.4003H14.6C14.2686 17.4003 14 17.6689 14 18.0002C14 18.3314 14.2686 18.6 14.6 18.6H17.9505L16.5754 19.9747C16.3408 20.2093 16.3408 20.5896 16.5754 20.8241C16.81 21.0586 17.1904 21.0586 17.425 20.8241L19.8238 18.4249C19.8539 18.3949 19.8804 18.3621 19.9032 18.327C19.9644 18.233 20 18.1207 20 18.0002C20 17.8746 19.9614 17.758 19.8954 17.6617C19.8744 17.631 19.8505 17.6021 19.8238 17.5755L19.8227 17.5744L17.4238 15.1762C17.3113 15.0634 17.1584 15 16.999 15C16.8396 15 16.6868 15.0634 16.5742 15.1762Z" fill="black"/>
<path d="M5.09337 21.2469C5.20131 21.8021 5.42108 22.1916 5.9185 22.5271C6.41588 22.8627 6.85938 22.9205 7.41468 22.8126C7.96998 22.7047 8.35948 22.4849 8.69498 21.9875C9.03048 21.49 9.08838 21.0466 8.98038 20.4913C8.87248 19.936 8.56978 19.4906 8.15528 19.211C7.74078 18.9314 7.21438 18.8176 6.65908 18.9256C6.10382 19.0335 5.71433 19.2533 5.37881 19.7507C5.0433 20.2481 4.98543 20.6916 5.09337 21.2469ZM0.325616 15.0463C0.0460157 15.4608 -0.0677743 15.9872 0.0401657 16.5425C0.148106 17.0978 0.450786 17.5432 0.865306 17.8228L8.69399 6.21627C8.27949 5.93668 7.75309 5.82289 7.19784 5.93083C6.64255 6.03876 6.19714 6.34144 5.91755 6.75596L0.325616 15.0463ZM17.1024 5.94643L13.7862 3.70966C13.5066 4.12418 13.3928 4.65053 13.5008 5.20583C13.6087 5.76112 13.9114 6.20652 14.3259 6.48612L12.6483 8.97323L9.52309 6.77547L1.69434 18.382L4.15639 20.1324C4.27018 19.606 4.43794 19.3573 4.54978 19.1915C4.99713 18.5283 5.63728 18.1157 6.47018 17.9538C7.30318 17.7919 8.05128 17.9346 8.71448 18.382L17.1024 5.94643Z" fill="#F0B804"/>
</svg>
