<svg width="24" height="24" viewBox="0 0 24 24" fill="none" xmlns="http://www.w3.org/2000/svg">
<path fill-rule="evenodd" clip-rule="evenodd" d="M12.1523 16.5411C12.4431 15.1693 13.1356 13.946 14.101 13H13.12L12 9.56L10.88 13H7.27L10.19 15.11L9.08 18.56L12 16.43L12.1523 16.5411ZM19 11V9H5V20H12.2899C12.5049 20.7224 12.8334 21.396 13.2547 22H5C4.46957 22 3.96086 21.7893 3.58579 21.4142C3.21071 21.0391 3 20.5304 3 20V6C3 5.46957 3.21071 4.96086 3.58579 4.58579C3.96086 4.21071 4.46957 4 5 4H6V2H8V4H16V2H18V4H19C19.5304 4 20.0391 4.21071 20.4142 4.58579C20.7893 4.96086 21 5.46957 21 6V11.2899C20.3663 11.1013 19.695 11 19 11Z" fill="#F63737"/>
<path fill-rule="evenodd" clip-rule="evenodd" d="M14 18C14 20.7614 16.2386 23 19 23C21.7614 23 24 20.7614 24 18C24 15.2386 21.7614 13 19 13C16.2386 13 14 15.2386 14 18ZM16.905 15.9065C17.1284 15.6832 17.4907 15.6832 17.7141 15.9065L19.0239 17.217L20.3336 15.9065C20.557 15.6832 20.9193 15.6832 21.1427 15.9065C21.3661 16.1299 21.3661 16.4921 21.1427 16.7154L19.8319 18.0247L21.1427 19.334C21.3661 19.5574 21.3661 19.9195 21.1427 20.1429C20.9193 20.3663 20.557 20.3663 20.3336 20.1429L19.0239 18.8325L17.7141 20.1429C17.4907 20.3663 17.1284 20.3663 16.905 20.1429C16.6816 19.9195 16.6816 19.5574 16.905 19.334L18.2159 18.0247L16.905 16.7154C16.6816 16.4921 16.6816 16.1299 16.905 15.9065Z" fill="black"/>
</svg>
