<svg width="24" height="24" viewBox="0 0 24 24" fill="none" xmlns="http://www.w3.org/2000/svg">
<path fill-rule="evenodd" clip-rule="evenodd" d="M3.82831 9.17167C2.26621 10.7338 2.26621 13.2664 3.82831 14.8285L9.17155 20.1718C10.7336 21.7339 13.2663 21.7339 14.8284 20.1718L20.1716 14.8285C21.7337 13.2664 21.7337 10.7338 20.1716 9.17167L14.8284 3.82843C13.2663 2.26634 10.7336 2.26634 9.17155 3.82843L3.82831 9.17167ZM12.707 6.29287C12.3165 5.90235 11.6833 5.90235 11.2928 6.29287L7.29278 10.2929C6.90225 10.6834 6.90225 11.3166 7.29278 11.7071C7.6833 12.0976 8.31647 12.0976 8.70699 11.7071L10.9999 9.41419V16C10.9999 16.5523 11.4476 17 11.9999 17C12.5522 17 12.9999 16.5523 12.9999 16V9.41419L15.2928 11.7071C15.6833 12.0976 16.3165 12.0976 16.707 11.7071C17.0975 11.3166 17.0975 10.6834 16.707 10.2929L12.707 6.29287Z" fill="#D84F53"/>
<circle cx="-100" cy="-100" r="0" fill="#FFFFFF"/>
</svg>