<svg width="70" height="70" viewBox="0 0 70 70" fill="none" xmlns="http://www.w3.org/2000/svg">
<path d="M49.5833 13.125C47.1673 13.125 45.2083 11.1661 45.2083 8.75001C45.2083 7.9446 44.5522 7.29168 43.74 7.29168H26.26C25.4491 7.29168 24.7917 7.95258 24.7917 8.75001C24.7917 11.1661 22.8327 13.125 20.4167 13.125C18.0006 13.125 16.0417 11.1661 16.0417 8.75001C16.0417 7.9446 15.3772 7.29168 14.5901 7.29168H4.37445C2.76393 7.29168 1.45834 8.60688 1.45834 10.2125V59.7875C1.45834 61.4006 2.76828 62.7083 4.38397 62.7083H65.6161C67.2318 62.7083 68.5417 61.3931 68.5417 59.7875V10.2125C68.5417 8.59938 67.2475 7.29168 65.6256 7.29168H55.41C54.6082 7.29168 53.9583 7.95258 53.9583 8.75001C53.9583 11.1661 51.9994 13.125 49.5833 13.125Z" fill="#FCE481"/>
<path fill-rule="evenodd" clip-rule="evenodd" d="M39.375 27.7083C39.375 26.9029 40.0312 26.25 40.8433 26.25H58.3234C59.1343 26.25 59.7917 26.8973 59.7917 27.7083C59.7917 28.5137 59.1355 29.1667 58.3234 29.1667H40.8433C40.0324 29.1667 39.375 28.5194 39.375 27.7083Z" fill="#F6BF23"/>
<path fill-rule="evenodd" clip-rule="evenodd" d="M39.375 36.4583C39.375 35.6529 40.0312 35 40.8433 35H58.3234C59.1343 35 59.7917 35.6473 59.7917 36.4583C59.7917 37.2637 59.1355 37.9167 58.3234 37.9167H40.8433C40.0324 37.9167 39.375 37.2694 39.375 36.4583Z" fill="#F6BF23"/>
<path fill-rule="evenodd" clip-rule="evenodd" d="M39.375 45.2083C39.375 44.4029 40.0136 43.75 40.8376 43.75H48.1207C48.9285 43.75 49.5833 44.3973 49.5833 45.2083C49.5833 46.0137 48.9448 46.6667 48.1207 46.6667H40.8376C40.0298 46.6667 39.375 46.0194 39.375 45.2083Z" fill="#F6BF23"/>
<path fill-rule="evenodd" clip-rule="evenodd" d="M23.3333 39.375H17.5C13.4729 39.375 10.2083 42.6396 10.2083 46.6667C10.2083 47.4721 10.8645 48.125 11.6767 48.125H29.1567C29.9676 48.125 30.625 47.4641 30.625 46.6667C30.625 42.6396 27.3604 39.375 23.3333 39.375Z" fill="#F6BF23"/>
<path d="M20.4167 36.4583C23.6383 36.4583 26.25 33.8467 26.25 30.625C26.25 27.4034 23.6383 24.7917 20.4167 24.7917C17.195 24.7917 14.5833 27.4034 14.5833 30.625C14.5833 33.8467 17.195 36.4583 20.4167 36.4583Z" fill="#F6BF23"/>
</svg>
