<svg width="60" height="60" viewBox="0 0 60 60" fill="none" xmlns="http://www.w3.org/2000/svg">
<path d="M22.5 15V12.5C22.5 8.35788 25.8577 5 30 5C34.1423 5 37.5 8.35788 37.5 12.5V15" stroke="#1C274C" stroke-width="3.75" stroke-linecap="round"/>
<path d="M50.5588 31.3142C49.0955 23.5113 48.364 19.6098 45.5868 17.3049C42.8095 15 38.8403 15 30.9013 15H29.0983C21.1594 15 17.1899 15 14.4127 17.3049C11.6354 19.6098 10.9039 23.5113 9.44083 31.3142C7.38351 42.2865 6.35486 47.7728 9.35393 51.3863C12.353 55 17.9347 55 29.0983 55H30.9013C42.0648 55 47.6465 55 50.6455 51.3863C52.3855 49.2898 52.7698 46.563 52.384 42.5" stroke="#1C274C" stroke-width="3.75" stroke-linecap="round"/>
</svg>
