<svg width="50" height="54" viewBox="0 0 50 54" fill="none" xmlns="http://www.w3.org/2000/svg">
<path d="M30 27L20 37M20 27L30 37" stroke="#1C274C" stroke-width="3.75" stroke-linecap="round"/>
<path d="M17.5 12V9.5C17.5 5.35788 20.8577 2 25 2C29.1423 2 32.5 5.35788 32.5 9.5V12" stroke="#1C274C" stroke-width="3.75" stroke-linecap="round"/>
<path d="M45.5588 28.3142C44.0955 20.5113 43.364 16.6098 40.5868 14.3049C37.8095 12 33.8403 12 25.9013 12H24.0983C16.1594 12 12.1899 12 9.41266 14.3049C6.63541 16.6098 5.90388 20.5113 4.44083 28.3142C2.38351 39.2865 1.35486 44.7728 4.35393 48.3863C7.35298 52 12.9347 52 24.0983 52H25.9013C37.0648 52 42.6465 52 45.6455 48.3863C47.3855 46.2898 47.7698 43.563 47.384 39.5" stroke="#1C274C" stroke-width="3.75" stroke-linecap="round"/>
</svg>
