<svg width="60" height="60" viewBox="0 0 60 60" fill="none" xmlns="http://www.w3.org/2000/svg">
<path d="M25 35.75C26.3017 36.9215 27.0315 37.5785 28.3332 38.75L35 31.25" stroke="#1C274C" stroke-width="3.75" stroke-linecap="round" stroke-linejoin="round"/>
<path d="M22.5 15V12.5C22.5 8.35788 25.8577 5 30 5C34.1423 5 37.5 8.35788 37.5 12.5V15" stroke="#1C274C" stroke-width="3.75" stroke-linecap="round"/>
<path d="M50.5587 31.3142C49.0955 23.5113 48.364 19.6098 45.5867 17.3049C42.8095 15 38.8402 15 30.9012 15H29.0982C21.1593 15 17.1899 15 14.4126 17.3049C11.6354 19.6098 10.9039 23.5113 9.44082 31.3142C7.3835 42.2865 6.35485 47.7728 9.35392 51.3863C12.353 55 17.9347 55 29.0982 55H30.9012C42.0647 55 47.6465 55 50.6455 51.3863C52.3855 49.2898 52.7697 46.563 52.384 42.5" stroke="#1C274C" stroke-width="3.75" stroke-linecap="round"/>
</svg>
