<svg width="24" height="24" viewBox="0 0 24 24" fill="none" xmlns="http://www.w3.org/2000/svg">
<path d="M16.6667 2L15.4381 3.44749L19.819 7.09934L21.0476 5.65184L16.6667 2ZM6.38095 2L2 5.64238L3.22857 7.08988L7.6 3.44749L6.38095 2ZM11.5238 4.0246C9.25053 4.0246 7.07035 4.92168 5.46289 6.51849C3.85544 8.11529 2.95238 10.281 2.95238 12.5393C2.95238 14.7975 3.85544 16.9632 5.46289 18.56C7.07035 20.1568 9.25053 21.0539 11.5238 21.0539C11.8381 21.0539 12.1619 21.0539 12.4762 20.9972V19.105C12.1619 19.1618 11.8381 19.1618 11.5238 19.1618C9.7557 19.1618 8.06001 18.4641 6.80976 17.2221C5.55952 15.9801 4.85714 14.2957 4.85714 12.5393C4.85714 10.7829 5.55952 9.0984 6.80976 7.85644C8.06001 6.61447 9.7557 5.91675 11.5238 5.91675C14.4762 5.91675 17.0762 7.83728 17.9143 10.6471H19.8857C19 6.76821 15.5238 4.0246 11.5238 4.0246ZM22 14.4314H19.1429V19.6348C19.1429 20.2621 18.892 20.8637 18.4455 21.3073C17.999 21.7508 17.3934 22 16.7619 22C16.1304 22 15.5248 21.7508 15.0783 21.3073C14.6318 20.8637 14.381 20.2621 14.381 19.6348C14.381 19.0075 14.6318 18.4059 15.0783 17.9624C15.5248 17.5188 16.1304 17.2696 16.7619 17.2696C17.2762 17.2696 17.781 17.4399 18.1905 17.7427V12.5393H22V14.4314ZM11.0476 7.80889V12.7758L7.2381 15.018L7.95238 16.1816L12.4762 13.4853V7.80889H11.0476Z" fill="currentColor"/>
</svg>
