<svg width="24" height="24" viewBox="0 0 24 24" fill="none" xmlns="http://www.w3.org/2000/svg">
<path d="M19.4561 12.1945L19.4557 12.194L15.5421 8.60683C15.1158 8.21604 14.6118 7.94029 14.073 7.76509C14.967 7.11868 15.5555 6.07406 15.5555 4.88899C15.5555 2.92847 13.9605 1.33345 12 1.33345C10.0395 1.33345 8.4445 2.92847 8.4445 4.88895C8.4445 6.07406 9.03303 7.11864 9.92707 7.76504C9.38828 7.94021 8.88429 8.216 8.45796 8.60679L4.54392 12.1944C4.19842 12.5117 4.00009 12.9627 4.00009 13.4319C4.00009 14.3576 4.75354 15.1111 5.71103 15.1111C6.15286 15.1111 6.5856 14.9318 6.8981 14.6193L8.49142 13.026C8.54175 13.5686 8.63246 14.0941 8.76266 14.5989L7.16197 16.8211C6.54002 17.6501 6.50877 18.7859 7.08343 19.6483L8.62029 21.9534C8.91758 22.4 9.41541 22.6665 9.95577 22.6665C10.8377 22.6665 11.5556 21.9487 11.5556 21.0667V20.8497C11.5556 20.4882 11.431 20.1332 11.2053 19.8502L9.96665 18.3024L10.6654 17.7786C11.5109 18.368 12.4892 18.368 13.3347 17.7786L14.033 18.3024L12.7947 19.8506C12.569 20.1331 12.4445 20.4882 12.4445 20.8497V21.0667C12.4445 21.9486 13.1624 22.6665 14.0482 22.6665C14.5847 22.6665 15.0825 22.4 15.3794 21.9538L16.9341 19.6218C17.4983 18.7759 17.4675 17.6605 16.8624 16.8532L15.2375 14.5984C15.3677 14.0941 15.4584 13.5685 15.5087 13.0259L17.102 14.6193C17.4145 14.9318 17.8472 15.111 18.3208 15.111C19.2465 15.111 20 14.3576 20 13.4318C19.9999 12.9627 19.8016 12.5117 19.4561 12.1945ZM12 17.3333C11.0729 17.3333 10.1841 16.2825 9.70274 14.6666H14.2973C13.8159 16.2825 12.9271 17.3333 12 17.3333Z" fill="currentColor"/>
</svg>
