<svg width="24" height="24" viewBox="0 0 24 24" fill="none" xmlns="http://www.w3.org/2000/svg">
<g clip-path="url(#clip0)">
<path d="M11.1459 12.2575L11.141 9.37146L11.6983 12.1466C11.7349 12.3289 11.8241 12.4966 11.9547 12.6291L15.0949 15.812C15.4653 16.1873 16.0697 16.1914 16.4451 15.8211C16.8204 15.4508 16.8245 14.8463 16.4542 14.4709L13.5142 11.491L13.0131 8.99551L13.8675 11.0468L16.8553 14.0752C17.281 14.5067 17.3953 15.1285 17.2006 15.6625L17.2095 15.702C17.6406 16.5694 17.8666 17.5363 17.8476 18.5485L18.0381 19.3982C18.3028 19.3067 18.5865 19.2564 18.8819 19.2564C19.4839 19.2564 20.0381 19.4633 20.4784 19.8091L19.1318 13.8023C19.0675 13.5152 18.8982 13.2743 18.6704 13.1147C18.9932 12.9617 19.2171 12.6337 19.2171 12.2525C19.2171 11.7252 18.7897 11.2978 18.2624 11.2978H14.9029V7.00039C14.9029 6.26339 14.3055 5.66589 13.5684 5.66589H10.8592C9.51783 5.66589 8.43039 6.75328 8.43039 8.09469V13.2194C9.23157 12.7155 10.1564 12.3913 11.1482 12.3033C11.1474 12.2881 11.1459 12.2728 11.1459 12.2575Z" fill="currentColor"/>
<path d="M14.6987 4.82176C15.931 4.09471 16.3405 2.50638 15.6135 1.27411C14.8864 0.0418475 13.2981 -0.36771 12.0658 0.35934C10.8336 1.08639 10.424 2.67473 11.1511 3.90699C11.8781 5.13926 13.4664 5.54881 14.6987 4.82176Z" fill="currentColor"/>
<path d="M7.82447 13.6537L6.93902 8.06312C6.8761 7.66596 6.53369 7.37354 6.13158 7.37354H4.33915C3.88767 7.37354 3.52167 7.73953 3.52167 8.19102C3.52167 8.6425 3.88767 9.0085 4.33915 9.0085H5.43341L6.42405 15.2633C6.79472 14.6487 7.2698 14.104 7.82447 13.6537Z" fill="currentColor"/>
<path d="M17.2651 18.4313C17.2651 17.6553 17.1054 16.916 16.8174 16.2442C16.4402 16.6011 15.9259 16.7276 15.4514 16.6247C15.7156 17.1716 15.8638 17.7845 15.8638 18.4314C15.8638 20.7292 13.9943 22.5987 11.6965 22.5987C9.39865 22.5987 7.52919 20.7292 7.52919 18.4314C7.52919 16.1335 9.39865 14.2641 11.6965 14.2641C12.142 14.2641 12.5713 14.3346 12.9741 14.4647L11.5536 13.0249L11.4013 12.8705C8.46738 13.0245 6.12779 15.4598 6.12779 18.4314C6.12779 21.502 8.62592 24.0001 11.6965 24.0001C14.767 24.0001 17.2651 21.5019 17.2651 18.4313Z" fill="currentColor"/>
<path d="M11.6964 17.2303C11.0332 17.2303 10.4954 17.768 10.4954 18.4313C10.4954 19.0946 11.0332 19.6323 11.6964 19.6323C12.3597 19.6323 12.8974 19.0946 12.8974 18.4313C12.8975 17.768 12.3598 17.2303 11.6964 17.2303Z" fill="currentColor"/>
<path d="M18.4112 19.9051C17.3178 19.9051 16.4282 20.7947 16.4282 21.8881C16.4282 22.9815 17.3178 23.8711 18.4112 23.8711C19.5046 23.8711 20.3942 22.9815 20.3942 21.8881C20.3942 20.7947 19.5047 19.9051 18.4112 19.9051ZM17.596 21.8881C17.596 21.4386 17.9617 21.0729 18.4112 21.0729C18.8607 21.0729 19.2263 21.4386 19.2263 21.8881C19.2263 22.3376 18.8607 22.7032 18.4112 22.7032C17.9617 22.7032 17.596 22.3376 17.596 21.8881Z" fill="currentColor"/>
</g>
<defs>
<clipPath id="clip0">
<rect width="24" height="24" fill="white"/>
</clipPath>
</defs>
</svg>
