<svg width="24" height="24" viewBox="0 0 24 24" fill="none" xmlns="http://www.w3.org/2000/svg">
<path fill-rule="evenodd" clip-rule="evenodd" d="M11.733 4.58934L4.03238 10.8251C3.90556 10.9274 3.75914 11.0039 3.60173 11.05C3.44432 11.0962 3.27908 11.1111 3.11571 11.0938C2.95234 11.0766 2.79413 11.0276 2.65036 10.9497C2.5066 10.8718 2.38017 10.7665 2.2785 10.6401C2.06965 10.3809 1.97221 10.0521 2.00685 9.72368C2.04148 9.39524 2.20548 9.09294 2.46401 8.88096L10.1604 2.64519C10.6769 2.2281 11.3256 2 11.9951 2C12.6646 2 13.3133 2.2281 13.8298 2.64519L21.5304 8.88096C21.7889 9.09294 21.9529 9.39524 21.9876 9.72368C22.0222 10.0521 21.9248 10.3809 21.7159 10.6401C21.6144 10.7673 21.4878 10.8733 21.3436 10.9517C21.1995 11.0301 21.0408 11.0794 20.8768 11.0967C20.7129 11.1139 20.547 11.0988 20.3892 11.0521C20.2313 11.0055 20.0846 10.9283 19.9578 10.8251L12.2572 4.58934C12.1835 4.52958 12.0908 4.49688 11.9951 4.49688C11.8994 4.49688 11.8067 4.52958 11.733 4.58934ZM20.7441 14.5001V20.3334C20.7484 20.7706 20.5754 21.1917 20.263 21.5041C19.9506 21.8166 19.5244 21.9949 19.0779 22H14.4944C14.2711 21.9976 14.058 21.9085 13.9017 21.7522C13.7455 21.5959 13.659 21.3853 13.6613 21.1667V16.5834C13.6634 16.3648 13.5768 16.1543 13.4206 15.9981C13.2645 15.8419 13.0514 15.7527 12.8282 15.7501H11.162C10.9387 15.7527 10.7257 15.8419 10.5695 15.9981C10.4134 16.1543 10.3268 16.3648 10.3288 16.5834V21.1667C10.3311 21.3853 10.2446 21.5959 10.0884 21.7522C9.9322 21.9085 9.71902 21.9976 9.49573 22H4.9123C4.46578 21.9949 4.03955 21.8166 3.72717 21.5041C3.41478 21.1917 3.24175 20.7706 3.24606 20.3334V14.5001C3.25398 14.2501 3.31348 14.0043 3.42097 13.7775C3.52847 13.5506 3.68173 13.3474 3.87154 13.1801L10.9347 7.34182C11.2314 7.09611 11.6074 6.96129 11.9959 6.96129C12.3845 6.96129 12.7605 7.09611 13.0571 7.34182L20.1203 13.1751C20.3104 13.3432 20.4637 13.5472 20.5709 13.775C20.6781 14.0027 20.737 14.2494 20.7441 14.5001Z" fill="currentColor"/>
</svg>
