<svg width="16" height="16" viewBox="0 0 16 16" fill="none" xmlns="http://www.w3.org/2000/svg">
<path fill-rule="evenodd" clip-rule="evenodd" d="M0 16H16V0H0V16ZM14.461 14.3903H1.53736V1.61077H14.461V14.3903ZM7.53783 3.00042C6.14319 3.04286 6.66556 5.52471 6.9068 6.30686H6.9058C6.90426 6.30999 6.90106 6.32439 6.89543 6.34976C6.8393 6.60262 6.54109 7.94604 5.22107 10.1024C5.22107 10.1024 2.43478 11.5656 3.10369 12.6691C3.63603 13.5442 4.9559 12.6358 6.08437 10.5066C6.08437 10.5066 7.53783 9.98518 9.46281 9.84067C9.46281 9.84067 12.5432 11.2473 12.9589 9.74972C13.3736 8.25111 10.5265 8.58762 10.028 8.7392C10.028 8.7392 8.40113 7.65288 8.01833 6.1472C8.01833 6.1472 8.93247 2.95798 7.53783 3.00042ZM6.35652 9.86694C6.35652 9.86694 7.15303 8.46635 7.55178 7.15267L7.55278 7.15368C7.5558 7.15441 7.56573 7.17518 7.58391 7.21323C7.69163 7.43866 8.08916 8.27058 9.05808 9.13431C9.05808 9.13431 7.20387 9.51326 6.35652 9.86694ZM10.684 9.34551C10.684 9.34551 12.4335 10.0054 12.4854 9.73659C12.5372 9.46677 11.1485 9.22728 10.684 9.34551ZM5.04662 10.8512C4.27503 11.1544 3.53634 12.4418 3.71877 12.4498C3.9012 12.4589 4.62394 11.8354 5.04662 10.8512ZM7.57285 5.14504C7.56098 5.19893 7.55365 5.23227 7.55378 5.23772C7.5468 5.19831 7.26069 3.46223 7.55378 3.49659C7.92599 3.54046 7.65106 4.78967 7.57285 5.14504Z" fill="#EA4C3A"/>
</svg>
