<svg width="16" height="16" viewBox="0 0 16 16" fill="none" xmlns="http://www.w3.org/2000/svg">
<path d="M13.5875 9.01242C13.5875 9.04992 13.5875 9.04992 13.5875 9.08742L13.55 8.97492C13.55 8.97492 13.55 8.97492 13.5875 9.01242C13.6625 8.67492 13.7 8.33742 13.7 7.99992C13.7 7.24992 13.55 6.49992 13.25 5.78742C12.95 5.11242 12.575 4.51242 12.05 3.98742C11.525 3.46242 10.925 3.04992 10.25 2.78742C9.5 2.44992 8.75 2.29992 8 2.29992C7.625 2.29992 7.2875 2.33742 6.9125 2.41242C6.95 2.41242 6.95 2.44992 6.9875 2.44992H6.875C6.9125 2.44992 6.9125 2.44992 6.95 2.44992C6.4625 2.18742 5.9375 2.07492 5.375 2.07492C4.475 1.99992 3.6125 2.37492 2.975 3.01242C2.3375 3.61242 2 4.47492 2 5.37492C2 5.93742 2.15 6.49992 2.4125 6.98742C2.4125 6.94992 2.4125 6.94992 2.4125 6.91242L2.45 7.02492C2.45 7.02492 2.4125 6.98742 2.4125 6.94992C2.375 7.28742 2.3375 7.58742 2.3375 7.92492C2.3375 8.67492 2.4875 9.42492 2.7875 10.1374C3.0875 10.8124 3.4625 11.4124 3.9875 11.9374C4.5125 12.4624 5.1125 12.8749 5.7875 13.1374C6.5 13.4749 7.25 13.6249 8 13.6249C8.3375 13.6249 8.675 13.5874 8.975 13.5499C8.9375 13.5499 8.9375 13.5124 8.9 13.5124L9.0125 13.5499C8.975 13.5499 8.975 13.5499 8.9375 13.5499C9.425 13.8499 10.025 13.9999 10.5875 13.9999C11.4875 13.9999 12.3125 13.6624 12.95 13.0249C13.5875 12.3874 13.925 11.5624 13.925 10.6624C14 10.0624 13.85 9.49992 13.5875 9.01242ZM8.0375 11.4499C6.0125 11.4499 5.1125 10.4749 5.1125 9.72492C5.1125 9.34992 5.375 9.08742 5.7875 9.08742C6.65 9.08742 6.425 10.3249 8.0375 10.3249C8.8625 10.3249 9.3125 9.87492 9.3125 9.42492C9.3125 9.16242 9.1625 8.86242 8.6375 8.71242L6.8375 8.26242C5.4125 7.88742 5.15 7.13742 5.15 6.38742C5.15 4.84992 6.575 4.28742 7.925 4.28742C9.1625 4.28742 10.625 4.96242 10.625 5.89992C10.625 6.27492 10.2875 6.49992 9.9125 6.49992C9.1625 6.49992 9.3125 5.48742 7.85 5.48742C7.1 5.48742 6.725 5.82492 6.725 6.31242C6.725 6.79992 7.2875 6.94992 7.8125 7.06242L9.125 7.36242C10.5875 7.69992 10.9625 8.52492 10.9625 9.34992C10.8875 10.5124 9.95 11.4499 8.0375 11.4499Z" fill="currentColor"/>
</svg>
