<svg width="16" height="16" viewBox="0 0 16 16" fill="none" xmlns="http://www.w3.org/2000/svg">
<path d="M13.4688 1.875H2.53125C2.18315 1.875 1.84931 2.01328 1.60317 2.25942C1.35703 2.50556 1.21875 2.8394 1.21875 3.1875V9.75C1.21875 10.0981 1.35703 10.4319 1.60317 10.6781C1.84931 10.9242 2.18315 11.0625 2.53125 11.0625H4.28125V13.9062C4.28119 13.9473 4.29266 13.9875 4.31436 14.0223C4.33606 14.0571 4.36711 14.0851 4.40397 14.1031C4.43386 14.1177 4.46673 14.1252 4.5 14.125C4.54866 14.125 4.59592 14.1087 4.63431 14.0788L8.51253 11.0625H13.4688C13.8168 11.0625 14.1507 10.9242 14.3968 10.6781C14.643 10.4319 14.7812 10.0981 14.7812 9.75V3.1875C14.7812 2.8394 14.643 2.50556 14.3968 2.25942C14.1507 2.01328 13.8168 1.875 13.4688 1.875Z" fill="currentColor"/>
</svg>
