<svg xmlns="http://www.w3.org/2000/svg" width="240px" height="240px" style="fill-rule:nonzero; clip-rule:evenodd" viewBox="0 0 240 240">
  <polygon points="92.08,216.83 45.68,230.07 45.68,8.24 92.08,21.44 " fill="#FCDC17"/>
  <path d="M150.93 142.6c-5.69,5.28 -13.29,8.51 -21.67,8.51 -18.33,0 -33.05,-15.42 -31.9,-34 1,-16.17 14.35,-29.22 30.53,-29.89 8.9,-0.38 17.01,2.9 23.01,8.45 2.59,2.39 6.51,2.63 9.27,0.44l34.43 -29.06c-15.31,-19.19 -38.88,-31.5 -65.34,-31.5 -46.14,0 -83.56,37.4 -83.58,83.54l0 0.08c0.02,46.15 37.44,83.54 83.58,83.54 26.93,0 50.87,-12.75 66.15,-32.54l-35.24 -27.98c-2.75,-2.19 -6.66,-1.98 -9.24,0.41z" fill="#40C0F0"/>
  <path d="M92.08 193.99l0 -149.71c-27.48,13.68 -46.38,42.02 -46.4,74.79l0 0.12c0.02,32.78 18.92,61.12 46.4,74.8z" fill="#364A98"/>
</svg>
