<svg width="120" height="120" viewBox="0 0 120 120" fill="none" xmlns="http://www.w3.org/2000/svg">
<path d="M112.826 102.328L89.0807 63.7197C87.7312 61.4244 85.2075 60 82.4949 60C79.7824 60 77.2655 61.4244 75.9497 63.6657L52.2449 102.213C48.979 107.04 52.4878 114 58.7092 114H106.274C112.563 114 115.937 106.918 112.826 102.328ZM82.4949 107.249C80.0118 107.249 77.9942 105.237 77.9942 102.746C77.9942 100.262 80.005 98.2435 82.4949 98.2435C84.9781 98.2435 86.9957 100.255 86.9957 102.746C86.9889 105.237 84.9781 107.249 82.4949 107.249ZM86.9889 89.2447C86.9889 91.729 84.9781 93.7475 82.4882 93.7475C79.9983 93.7475 77.9875 91.729 77.9875 89.2447V75.743C77.9875 73.2587 79.9983 71.2402 82.4882 71.2402C84.9781 71.2402 86.9889 73.2587 86.9889 75.743V89.2447Z" fill="#FF7171"/>
<path d="M91.482 6H19.5C12.048 6 6 12.0413 6 19.5C6 26.9588 12.0413 33 19.5 33H91.482C98.9341 33 104.982 26.9588 104.982 19.5C104.982 12.0413 98.9341 6 91.482 6ZM19.5 24.0023C17.016 24.0023 14.9978 21.984 14.9978 19.5C14.9978 17.016 17.0093 14.9978 19.5 14.9978C21.984 14.9978 24.0023 17.0093 24.0023 19.5C23.9955 21.984 21.984 24.0023 19.5 24.0023ZM37.4955 24.0023C35.0115 24.0023 32.9933 21.984 32.9933 19.5C32.9933 17.016 35.0048 14.9978 37.4955 14.9978C39.9863 14.9978 41.991 17.016 41.991 19.5C41.991 21.984 39.9795 24.0023 37.4955 24.0023Z" fill="#ADB9C5"/>
<path d="M91.482 41.9978H19.5C12.0345 41.9978 6 48.0256 6 55.4978C6 62.9701 12.0278 68.9978 19.5 68.9978H62.106L68.2688 58.9606C71.1038 54.1006 76.5915 50.9956 82.4843 50.9956C88.377 50.9956 93.8648 54.1006 96.8348 59.1428L100.662 65.3528C103.315 62.9228 104.982 59.4128 104.982 55.4978C104.975 48.0323 98.9476 41.9978 91.482 41.9978ZM19.5 60.0001C17.0228 60.0001 14.9978 57.9751 14.9978 55.4978C14.9978 53.0206 17.0228 50.9956 19.5 50.9956C21.9773 50.9956 24.0023 53.0206 24.0023 55.4978C24.0023 57.9751 21.9705 60.0001 19.5 60.0001ZM37.4955 60.0001C35.0183 60.0001 32.9933 57.9751 32.9933 55.4978C32.9933 53.0206 35.0183 50.9956 37.4955 50.9956C39.9728 50.9956 41.9978 53.0206 41.9978 55.4978C41.9978 57.9751 39.966 60.0001 37.4955 60.0001Z" fill="#32C1FA"/>
<path d="M19.5 78.0023C12.0345 78.0023 6 84.0301 6 91.5023C6 98.9746 12.0278 105.002 19.5 105.002H42.0855C42.2678 102.167 43.2128 99.5146 44.7855 97.1723L56.571 78.0023H19.5ZM19.5 95.9978C17.0228 95.9978 14.9978 93.9728 14.9978 91.4956C14.9978 89.0251 17.0228 87.0001 19.5 87.0001C21.9773 87.0001 24.0023 89.0251 24.0023 91.5023C23.9955 93.9728 21.9705 95.9978 19.5 95.9978ZM37.4955 95.9978C35.0183 95.9978 32.9933 93.9728 32.9933 91.4956C32.9933 89.0183 35.0183 86.9933 37.4955 86.9933C39.9728 86.9933 41.9978 89.0183 41.9978 91.4956C41.991 93.9728 39.966 95.9978 37.4955 95.9978Z" fill="#ADB3C5"/>
</svg>
