<svg width="24" height="24" viewBox="0 0 24 24" fill="none" xmlns="http://www.w3.org/2000/svg">
<path d="M8 16L7 16C5.89543 16 5 15.1046 5 14L5 11C5 9.89543 5.89543 9 7 9L17 9C18.1046 9 19 9.89543 19 11L19 14C19 15.1046 18.1046 16 17 16L16 16" stroke="#898989" stroke-width="2" stroke-linecap="round" stroke-linejoin="round"/>
<path d="M16 13L16 16C16 17.1046 15.1046 18 14 18L10 18C8.89543 18 8 17.1046 8 16L8 13" stroke="#898989" stroke-width="2" stroke-linecap="round" stroke-linejoin="round"/>
<path d="M8 9L8 8C8 6.89543 8.89543 6 10 6L14 6C15.1046 6 16 6.89543 16 8L16 9" stroke="#898989" stroke-width="2" stroke-linecap="round" stroke-linejoin="round"/>
</svg>