<svg width="64px" height="64px" viewBox="0 0 64 64" style="fill-rule:evenodd; clip-rule:evenodd" fill="none" xmlns="http://www.w3.org/2000/svg">
  <circle cx="32" cy="32" r="32" fill="currentColor"/>
  <path fill-rule="nonzero" d="M43.87 45.77l0 4.2 -23.7 0c-0.04,-1.06 0.14,-2.07 0.51,-3.05 0.61,-1.61 1.59,-3.21 2.93,-4.76 1.34,-1.56 3.26,-3.36 5.75,-5.4 3.88,-3.2 6.51,-5.72 7.88,-7.59 1.39,-1.86 2.08,-3.63 2.08,-5.3 0,-1.74 -0.63,-3.21 -1.88,-4.41 -1.25,-1.19 -2.88,-1.79 -4.89,-1.79 -2.12,0 -3.82,0.64 -5.1,1.9 -1.27,1.26 -1.92,3.01 -1.93,5.25l-4.5 -0.45c0.31,-3.36 1.47,-5.93 3.49,-7.7 2.02,-1.76 4.73,-2.65 8.14,-2.65 3.44,0 6.16,0.95 8.16,2.86 2.01,1.91 3.01,4.28 3.01,7.09 0,1.44 -0.29,2.84 -0.89,4.23 -0.58,1.39 -1.55,2.85 -2.91,4.38 -1.37,1.53 -3.63,3.63 -6.78,6.3 -2.64,2.22 -4.34,3.72 -5.09,4.51 -0.75,0.79 -1.36,1.58 -1.86,2.38l17.58 0z" fill="#CAD2DC"/>
</svg>
