<svg width="64px" height="64px" viewBox="0 0 64 64" style="fill-rule:evenodd; clip-rule:evenodd" fill="none" xmlns="http://www.w3.org/2000/svg">
  <circle cx="32" cy="32" r="32" fill="currentColor"/>
  <path class="fil1" d="M20.28 40.17l4.4 -0.6c0.5,2.5 1.35,4.3 2.56,5.4 1.21,1.1 2.69,1.65 4.45,1.65 2.09,0 3.85,-0.71 5.26,-2.15 1.42,-1.43 2.13,-3.2 2.13,-5.32 0,-2.02 -0.66,-3.68 -1.99,-5 -1.31,-1.31 -2.99,-1.97 -5.03,-1.97 -0.83,0 -1.87,0.17 -3.11,0.49l0.49 -3.85c0.29,0.04 0.54,0.05 0.71,0.05 1.88,0 3.57,-0.49 5.08,-1.46 1.5,-0.98 2.25,-2.48 2.25,-4.5 0,-1.61 -0.55,-2.94 -1.64,-4 -1.1,-1.06 -2.51,-1.59 -4.23,-1.59 -1.72,0 -3.14,0.55 -4.28,1.63 -1.15,1.08 -1.88,2.71 -2.2,4.87l-4.4 -0.8c0.54,-2.95 1.75,-5.24 3.66,-6.86 1.9,-1.63 4.28,-2.44 7.11,-2.44 1.95,0 3.75,0.42 5.39,1.26 1.65,0.84 2.91,1.98 3.78,3.42 0.87,1.45 1.31,2.98 1.31,4.61 0,1.54 -0.42,2.94 -1.25,4.21 -0.83,1.26 -2.06,2.27 -3.69,3.02 2.12,0.48 3.76,1.5 4.94,3.04 1.16,1.54 1.75,3.47 1.75,5.78 0,3.12 -1.14,5.78 -3.42,7.96 -2.28,2.17 -5.17,3.25 -8.65,3.25 -3.14,0 -5.75,-0.94 -7.83,-2.81 -2.08,-1.88 -3.26,-4.3 -3.55,-7.29z" fill="#CAD2DC"/>
</svg>
