<svg width="120" height="120" viewBox="0 0 120 120" fill="none" xmlns="http://www.w3.org/2000/svg">
<path d="M86.0543 106.096H17.9121C15.6982 106.096 13.9038 104.302 13.9038 102.088V5.88704C13.9038 3.67313 15.6984 1.87875 17.9121 1.87875H70.0209L90.0628 21.9206V102.087C90.0628 104.301 88.2682 106.096 86.0543 106.096Z" fill="#F1F4FB"/>
<path d="M70.021 1.87875V15.908C70.021 19.2286 72.7128 21.9206 76.0336 21.9206H90.0629L70.021 1.87875Z" fill="#BDECFF"/>
<path d="M55.9917 118.121H100.084C103.404 118.121 106.096 115.429 106.096 112.108V59.9998C106.096 56.6791 103.405 53.9871 100.084 53.9871H55.9917C52.671 53.9871 49.979 56.6789 49.979 59.9998V112.109C49.979 115.429 52.6708 118.121 55.9917 118.121Z" fill="#ADB3C5"/>
<path d="M96.0752 74.029H60C58.8933 74.029 57.9958 73.1316 57.9958 72.0248V64.0081C57.9958 62.9013 58.8933 62.0039 60 62.0039H96.0752C97.182 62.0039 98.0794 62.9013 98.0794 64.0081V72.0248C98.0796 73.1316 97.1822 74.029 96.0752 74.029Z" fill="#32C1FA"/>
<path d="M64.0083 92.067H60C58.8933 92.067 57.9958 91.1695 57.9958 90.0628V86.0545C57.9958 84.9478 58.8933 84.0504 60 84.0504H64.0083C65.115 84.0504 66.0124 84.9478 66.0124 86.0545V90.0628C66.0127 91.1695 65.1152 92.067 64.0083 92.067Z" fill="#9C9C9C"/>
<path d="M96.0753 92.0667H92.067C90.9603 92.0667 90.0629 91.1693 90.0629 90.0626V86.0543C90.0629 84.9476 90.9603 84.0502 92.067 84.0502H96.0753C97.182 84.0502 98.0794 84.9476 98.0794 86.0543V90.0626C98.0797 91.1693 97.1822 92.0667 96.0753 92.0667Z" fill="#0CDC40"/>
<path d="M80.0418 92.0667H76.0336C74.9268 92.0667 74.0294 91.1693 74.0294 90.0626V86.0543C74.0294 84.9476 74.9268 84.0502 76.0336 84.0502H80.0418C81.1486 84.0502 82.046 84.9476 82.046 86.0543V90.0626C82.046 91.1693 81.1486 92.0667 80.0418 92.0667Z" fill="#65687A"/>
<path d="M64.0083 108.1H60C58.8933 108.1 57.9958 107.203 57.9958 106.096V102.088C57.9958 100.981 58.8933 100.084 60 100.084H64.0083C65.115 100.084 66.0124 100.981 66.0124 102.088V106.096C66.0127 107.203 65.1152 108.1 64.0083 108.1Z" fill="#65687A"/>
<path d="M96.0753 108.1H92.067C90.9603 108.1 90.0629 107.203 90.0629 106.096V102.088C90.0629 100.981 90.9603 100.084 92.067 100.084H96.0753C97.182 100.084 98.0794 100.981 98.0794 102.088V106.096C98.0797 107.203 97.1822 108.1 96.0753 108.1Z" fill="#FFDD00"/>
<path d="M80.0418 108.1H76.0336C74.9268 108.1 74.0294 107.203 74.0294 106.096V102.088C74.0294 100.981 74.9268 100.084 76.0336 100.084H80.0418C81.1486 100.084 82.046 100.981 82.046 102.088V106.096C82.046 107.203 81.1486 108.1 80.0418 108.1Z" fill="#65687A"/>
<path d="M96.0752 62.0039H60C58.8933 62.0039 57.9958 62.9013 57.9958 64.0081V68.0166H98.0796V64.0081C98.0796 62.9011 97.1822 62.0039 96.0752 62.0039Z" fill="#1F9ACC"/>
<path d="M45.7089 18H60.2911C61.2348 18 62 17.1047 62 16C62 14.8956 61.235 14 60.2911 14H45.7089C44.7652 14 44 14.8953 44 16C44 17.1044 44.765 18 45.7089 18Z" fill="#575757"/>
<path d="M45.9666 33.8205H47.9708C49.0084 33.8205 49.8498 32.9794 49.8498 31.9416C49.8498 30.904 49.0086 30.0626 47.9708 30.0626H45.9666C44.9291 30.0626 44.0876 30.9037 44.0876 31.9416C44.0876 32.9794 44.9288 33.8205 45.9666 33.8205Z" fill="#575757"/>
<path d="M23.9248 47.8493H80.0419C81.0795 47.8493 81.9209 47.0081 81.9209 45.9703C81.9209 44.9327 81.0797 44.0913 80.0419 44.0913H23.9248C22.8872 44.0913 22.0458 44.9325 22.0458 45.9703C22.0458 47.0081 22.8869 47.8493 23.9248 47.8493Z" fill="#575757"/>
<path d="M41.9623 56.1166H35.9497C34.9121 56.1166 34.0707 56.9578 34.0707 57.9956C34.0707 59.0334 34.9118 59.8746 35.9497 59.8746H41.9623C42.9999 59.8746 43.8413 59.0334 43.8413 57.9956C43.8413 56.9578 43.0001 56.1166 41.9623 56.1166Z" fill="#575757"/>
<path d="M27.933 56.1166H23.9248C22.8872 56.1166 22.0458 56.9578 22.0458 57.9956C22.0458 59.0334 22.887 59.8746 23.9248 59.8746H27.933C28.9706 59.8746 29.812 59.0334 29.812 57.9956C29.812 56.9578 28.9706 56.1166 27.933 56.1166Z" fill="#575757"/>
<path d="M41.9623 64.1334H35.9497C34.9121 64.1334 34.0707 64.9746 34.0707 66.0124C34.0707 67.0502 34.9118 67.8914 35.9497 67.8914H41.9623C42.9999 67.8914 43.8413 67.0502 43.8413 66.0124C43.8413 64.9746 43.0001 64.1334 41.9623 64.1334Z" fill="#575757"/>
<path d="M27.933 64.1334H23.9248C22.8872 64.1334 22.0458 64.9746 22.0458 66.0124C22.0458 67.0502 22.887 67.8914 23.9248 67.8914H27.933C28.9706 67.8914 29.812 67.0502 29.812 66.0124C29.812 64.9746 28.9706 64.1334 27.933 64.1334Z" fill="#575757"/>
<path d="M41.9623 72.15H35.9497C34.9121 72.15 34.0707 72.9912 34.0707 74.029C34.0707 75.0668 34.9118 75.908 35.9497 75.908H41.9623C42.9999 75.908 43.8413 75.0668 43.8413 74.029C43.8413 72.9912 43.0001 72.15 41.9623 72.15Z" fill="#575757"/>
<path d="M27.933 72.15H23.9248C22.8872 72.15 22.0458 72.9912 22.0458 74.029C22.0458 75.0668 22.887 75.908 23.9248 75.908H27.933C28.9706 75.908 29.812 75.0668 29.812 74.029C29.812 72.9912 28.9706 72.15 27.933 72.15Z" fill="#575757"/>
<path d="M27.933 80.1668H23.9248C22.8872 80.1668 22.0458 81.008 22.0458 82.0458C22.0458 83.0834 22.887 83.9248 23.9248 83.9248H27.933C28.9706 83.9248 29.812 83.0836 29.812 82.0458C29.812 81.0082 28.9706 80.1668 27.933 80.1668Z" fill="#575757"/>
<path d="M41.9623 88.1836H35.9497C34.9121 88.1836 34.0707 89.0248 34.0707 90.0626C34.0707 91.1002 34.9118 91.9416 35.9497 91.9416H41.9623C42.9999 91.9416 43.8413 91.1004 43.8413 90.0626C43.8413 89.0248 43.0001 88.1836 41.9623 88.1836Z" fill="#575757"/>
<path d="M27.933 88.1836H23.9248C22.8872 88.1836 22.0458 89.0248 22.0458 90.0626C22.0458 91.1002 22.887 91.9416 23.9248 91.9416H27.933C28.9706 91.9416 29.812 91.1004 29.812 90.0626C29.812 89.0248 28.9706 88.1836 27.933 88.1836Z" fill="#575757"/>
<path d="M64.1295 31.9418C64.1295 32.9794 64.9707 33.8208 66.0085 33.8208H68.0126C69.0502 33.8208 69.8916 32.9796 69.8916 31.9418C69.8916 30.9042 69.0505 30.0628 68.0126 30.0628H66.0085C64.9707 30.0628 64.1295 30.904 64.1295 31.9418Z" fill="#575757"/>
<path d="M76.0293 33.8205H78.0334C79.071 33.8205 79.9124 32.9794 79.9124 31.9416C79.9124 30.904 79.0712 30.0626 78.0334 30.0626H76.0293C74.9917 30.0626 74.1503 30.9037 74.1503 31.9416C74.1505 32.9794 74.9917 33.8205 76.0293 33.8205Z" fill="#575757"/>
<path d="M55.9874 30.0628C54.9498 30.0628 54.1084 30.904 54.1084 31.9418C54.1084 32.9794 54.9496 33.8208 55.9874 33.8208H57.9915C59.0291 33.8208 59.8705 32.9796 59.8705 31.9418C59.8705 30.9042 59.0293 30.0628 57.9915 30.0628H55.9874Z" fill="#575757"/>
<path d="M45.7369 26H64.2631C65.2222 26 66 25.1047 66 24C66 22.8953 65.2224 22 64.2631 22H45.7369C44.7778 22 44 22.8953 44 24C44 25.1047 44.7776 26 45.7369 26Z" fill="#575757"/>
<path d="M41.9623 80.1668H35.9497C34.9121 80.1668 34.0707 81.008 34.0707 82.0458C34.0707 83.0834 34.9118 83.9248 35.9497 83.9248H41.9623C42.9999 83.9248 43.8413 83.0836 43.8413 82.0458C43.8413 81.0082 43.0001 80.1668 41.9623 80.1668Z" fill="#575757"/>
<path d="M95.9583 60H59.8831C57.7419 60 56 61.7419 56 63.8831V71.8999C56 74.0412 57.7419 75.783 59.8831 75.783H95.9583C98.0996 75.783 99.8415 74.0412 99.8415 71.8999V63.8831C99.8415 61.7419 98.0996 60 95.9583 60ZM96.0837 71.8999C96.0837 71.9691 96.0277 72.0251 95.9586 72.0251H59.8831C59.814 72.0251 59.758 71.9691 59.758 71.8999V63.8831C59.758 63.814 59.814 63.758 59.8831 63.758H95.9583C96.0275 63.758 96.0835 63.814 96.0835 63.8831V71.8999H96.0837Z" fill="#1C1C1F"/>
<path d="M64.0083 82.1709H60.0001C57.8588 82.1709 56.1169 83.9128 56.1169 86.0541V90.0623C56.1169 92.2036 57.8588 93.9455 60.0001 93.9455H64.0083C66.1496 93.9455 67.8915 92.2036 67.8915 90.0623V86.0541C67.8915 83.9128 66.1496 82.1709 64.0083 82.1709ZM64.1337 90.0626C64.1337 90.1317 64.0777 90.1877 64.0086 90.1877H60.0001C59.9309 90.1877 59.8749 90.1317 59.8749 90.0626V86.0543C59.8749 85.9851 59.9309 85.9291 60.0001 85.9291H64.0083C64.0775 85.9291 64.1335 85.9851 64.1335 86.0543V90.0626H64.1337Z" fill="#1C1C1F"/>
<path d="M96.0752 82.1709H92.067C89.9257 82.1709 88.1838 83.9128 88.1838 86.0541V90.0623C88.1838 92.2036 89.9257 93.9455 92.067 93.9455H96.0752C98.2165 93.9455 99.9584 92.2036 99.9584 90.0623V86.0541C99.9584 83.9128 98.2165 82.1709 96.0752 82.1709ZM96.2006 90.0626C96.2006 90.1317 96.1446 90.1877 96.0755 90.1877H92.0672C91.9981 90.1877 91.942 90.1317 91.942 90.0626V86.0543C91.942 85.9851 91.9981 85.9291 92.0672 85.9291H96.0755C96.1446 85.9291 96.2006 85.9851 96.2006 86.0543V90.0626Z" fill="#1C1C1F"/>
<path d="M80.0419 82.1709H76.0336C73.8924 82.1709 72.1505 83.9128 72.1505 86.0541V90.0623C72.1505 92.2036 73.8924 93.9455 76.0336 93.9455H80.0419C82.1832 93.9455 83.925 92.2036 83.925 90.0623V86.0541C83.925 83.9128 82.1832 82.1709 80.0419 82.1709ZM80.1671 90.0626C80.1671 90.1317 80.1111 90.1877 80.0419 90.1877H76.0336C75.9645 90.1877 75.9085 90.1317 75.9085 90.0626V86.0543C75.9085 85.9851 75.9645 85.9291 76.0336 85.9291H80.0419C80.1111 85.9291 80.1671 85.9851 80.1671 86.0543V90.0626Z" fill="#1C1C1F"/>
<path d="M64.0083 98.2045H60.0001C57.8588 98.2045 56.1169 99.9464 56.1169 102.088V106.096C56.1169 108.237 57.8588 109.979 60.0001 109.979H64.0083C66.1496 109.979 67.8915 108.237 67.8915 106.096V102.088C67.8915 99.9464 66.1496 98.2045 64.0083 98.2045ZM64.1337 106.096C64.1337 106.165 64.0777 106.221 64.0086 106.221H60.0001C59.9309 106.221 59.8749 106.165 59.8749 106.096V102.088C59.8749 102.019 59.9309 101.962 60.0001 101.962H64.0083C64.0775 101.962 64.1335 102.019 64.1335 102.088V106.096H64.1337Z" fill="#1C1C1F"/>
<path d="M96.0752 98.2045H92.067C89.9257 98.2045 88.1838 99.9464 88.1838 102.088V106.096C88.1838 108.237 89.9257 109.979 92.067 109.979H96.0752C98.2165 109.979 99.9584 108.237 99.9584 106.096V102.088C99.9584 99.9464 98.2165 98.2045 96.0752 98.2045ZM96.2006 106.096C96.2006 106.165 96.1446 106.221 96.0755 106.221H92.0672C91.9981 106.221 91.942 106.165 91.942 106.096V102.088C91.942 102.019 91.9981 101.962 92.0672 101.962H96.0755C96.1446 101.962 96.2006 102.019 96.2006 102.088V106.096Z" fill="#1C1C1F"/>
<path d="M80.0419 98.2045H76.0336C73.8924 98.2045 72.1505 99.9464 72.1505 102.088V106.096C72.1505 108.237 73.8924 109.979 76.0336 109.979H80.0419C82.1832 109.979 83.925 108.237 83.925 106.096V102.088C83.925 99.9464 82.1832 98.2045 80.0419 98.2045ZM80.1671 106.096C80.1671 106.165 80.1111 106.221 80.0419 106.221H76.0336C75.9645 106.221 75.9085 106.165 75.9085 106.096V102.088C75.9085 102.019 75.9645 101.962 76.0336 101.962H80.0419C80.1111 101.962 80.1671 102.019 80.1671 102.088V106.096Z" fill="#1C1C1F"/>
<path d="M33.2579 29.8269H29.0178V33H25.6995V29.8269H23V27.0385H25.6995V25.5687H23V22.7802H25.6995V13H33.0341C35.1498 13 36.8397 13.5769 38.1038 14.7308C39.3679 15.8755 40 17.4002 40 19.3049C40 21.2463 39.3987 22.7711 38.196 23.8791C36.9933 24.978 35.3209 25.5412 33.1789 25.5687H29.0178V27.0385H33.2579V29.8269ZM29.0178 22.7802H32.9814C34.1753 22.7802 35.0883 22.4918 35.7204 21.9148C36.3524 21.3379 36.6685 20.4771 36.6685 19.3324C36.6685 18.3068 36.3568 17.4689 35.7335 16.8187C35.119 16.1685 34.2675 15.8297 33.1789 15.8022H29.0178V22.7802Z" fill="#404040"/>
</svg>
